<svg id="svg" xmlns="http://www.w3.org/2000/svg" xmlns:xlink="http://www.w3.org/1999/xlink" width="500" height="500" viewBox="0, 0, 500,500"><g id="svgg"><path id="path0" d="M237.500 0.172 C 236.855 0.217,234.395 0.377,232.031 0.527 C 116.737 7.861,19.421 97.893,2.629 212.760 C 0.566 226.872,0.130 233.398,0.131 250.130 C 0.132 264.036,0.212 265.978,1.186 275.781 C 12.123 385.816,96.355 476.641,205.599 496.193 C 228.882 500.360,255.857 501.175,279.297 498.419 C 392.595 485.097,482.614 396.582,497.905 283.464 C 499.507 271.608,499.870 265.376,499.867 249.740 C 499.865 235.985,499.771 233.697,498.814 224.219 C 486.517 102.387,387.190 7.626,264.063 0.259 C 260.226 0.030,240.481 -0.035,237.500 0.172 M260.704 22.660 C 390.315 29.095,488.208 141.340,476.690 270.313 C 465.850 391.692,360.605 483.374,239.036 477.341 C 106.709 470.773,8.070 353.643,24.118 222.135 C 38.500 104.280,142.279 16.779,260.704 22.660 M187.722 104.190 C 142.708 107.716,107.286 143.638,104.161 188.932 C 103.641 196.469,103.956 311.807,104.507 315.885 C 110.327 358.904,142.544 390.606,185.547 395.629 C 189.830 396.129,309.954 396.117,314.453 395.615 C 358.908 390.662,392.552 355.817,395.835 311.328 C 396.357 304.259,396.046 188.196,395.494 184.115 C 389.788 141.892,358.931 110.725,316.797 104.626 L 312.891 104.060 251.693 104.016 C 218.034 103.992,189.247 104.070,187.722 104.190 M312.185 131.785 C 341.281 134.945,365.058 158.723,368.215 187.815 C 368.596 191.327,368.596 308.673,368.215 312.185 C 365.086 341.026,341.889 364.515,313.004 368.091 C 308.140 368.693,191.860 368.693,186.996 368.091 C 158.126 364.516,134.913 341.011,131.785 312.185 C 131.404 308.673,131.404 191.327,131.785 187.815 C 134.919 158.929,158.610 135.060,187.370 131.814 C 190.440 131.467,309.007 131.440,312.185 131.785 M322.917 157.703 C 309.375 161.266,308.804 180.289,322.110 184.571 C 332.167 187.808,341.985 179.086,340.084 168.603 C 338.696 160.942,330.466 155.716,322.917 157.703 M245.964 175.151 C 245.391 175.208,243.633 175.382,242.057 175.539 C 195.733 180.149,165.083 227.774,179.807 272.266 C 197.165 324.722,263.447 340.487,302.488 301.446 C 340.044 263.890,326.959 200.203,277.604 180.335 C 268.283 176.583,254.452 174.317,245.964 175.151 M258.953 203.371 C 298.541 211.299,310.259 262.120,278.101 286.419 C 247.438 309.587,203.726 287.553,203.785 248.958 C 203.822 225.040,221.092 205.709,245.052 202.768 C 247.652 202.448,256.199 202.819,258.953 203.371 " stroke="none" fill="#f0f0f0" fill-rule="evenodd"></path><path id="path1" d="M244.141 22.561 C 150.846 24.873,68.231 84.320,36.160 172.216 C 27.080 197.102,22.094 226.140,22.447 252.083 L 22.484 254.818 22.635 252.734 L 22.786 250.651 45.313 225.532 C 57.702 211.717,70.312 197.654,73.335 194.282 C 113.090 149.935,120.898 141.286,121.126 141.348 C 121.273 141.387,121.321 141.303,121.233 141.161 C 121.145 141.019,121.312 140.753,121.604 140.571 C 121.896 140.389,122.135 140.134,122.135 140.005 C 122.135 139.876,122.293 139.641,122.486 139.482 C 122.678 139.323,123.692 138.138,124.738 136.849 C 138.893 119.414,160.235 107.636,183.333 104.512 C 188.759 103.778,311.207 103.775,316.667 104.509 C 359.248 110.231,392.031 144.278,395.824 186.719 C 396.205 190.974,396.193 309.084,395.812 313.367 C 393.134 343.448,375.371 370.417,348.525 385.162 L 345.878 386.616 332.755 403.529 C 325.537 412.832,315.718 425.482,310.936 431.641 C 306.153 437.799,296.565 450.163,289.629 459.115 C 282.693 468.066,276.841 475.532,276.625 475.705 C 276.303 475.963,276.392 475.999,277.113 475.902 C 277.598 475.836,279.342 475.600,280.990 475.376 C 379.226 462.024,458.018 385.612,474.313 287.891 C 497.882 146.545,387.250 19.015,244.141 22.561 M151.420 148.763 L 150.391 149.870 151.497 148.840 C 152.527 147.883,152.724 147.656,152.527 147.656 C 152.484 147.656,151.986 148.154,151.420 148.763 M348.307 148.698 C 348.867 149.271,349.383 149.740,349.455 149.740 C 349.526 149.740,349.127 149.271,348.568 148.698 C 348.008 148.125,347.492 147.656,347.420 147.656 C 347.349 147.656,347.748 148.125,348.307 148.698 M148.423 151.758 L 147.526 152.734 148.503 151.837 C 149.412 151.002,149.599 150.781,149.400 150.781 C 149.357 150.781,148.917 151.221,148.423 151.758 M351.302 151.693 C 351.788 152.194,352.244 152.604,352.316 152.604 C 352.387 152.604,352.048 152.194,351.563 151.693 C 351.077 151.191,350.620 150.781,350.549 150.781 C 350.477 150.781,350.816 151.191,351.302 151.693 M325.721 157.220 C 326.189 157.278,326.892 157.277,327.283 157.217 C 327.675 157.158,327.292 157.110,326.432 157.112 C 325.573 157.113,325.253 157.162,325.721 157.220 M340.430 171.224 C 340.433 171.797,340.486 172.001,340.549 171.677 C 340.611 171.353,340.609 170.884,340.544 170.635 C 340.478 170.386,340.427 170.651,340.430 171.224 M131.571 191.146 C 131.571 191.647,131.624 191.852,131.690 191.602 C 131.755 191.351,131.755 190.941,131.690 190.690 C 131.624 190.439,131.571 190.645,131.571 191.146 M103.774 250.000 C 103.774 280.866,103.804 293.493,103.841 278.060 C 103.878 262.627,103.878 237.373,103.841 221.940 C 103.804 206.507,103.774 219.134,103.774 250.000 M302.593 196.680 C 303.232 197.360,303.788 197.917,303.830 197.917 C 304.026 197.917,303.819 197.683,302.669 196.604 L 301.432 195.443 302.593 196.680 M247.461 202.784 C 247.712 202.849,248.122 202.849,248.372 202.784 C 248.623 202.718,248.418 202.665,247.917 202.665 C 247.415 202.665,247.210 202.718,247.461 202.784 M251.888 202.784 C 252.139 202.849,252.549 202.849,252.799 202.784 C 253.050 202.718,252.845 202.665,252.344 202.665 C 251.842 202.665,251.637 202.718,251.888 202.784 M280.990 214.404 C 280.990 214.449,281.370 214.830,281.836 215.251 L 282.682 216.016 281.917 215.169 C 281.204 214.380,280.990 214.203,280.990 214.404 M217.050 216.471 L 215.234 218.359 217.122 216.543 C 218.876 214.857,219.129 214.583,218.938 214.583 C 218.899 214.583,218.049 215.433,217.050 216.471 M283.724 217.188 C 284.283 217.760,284.800 218.229,284.871 218.229 C 284.943 218.229,284.544 217.760,283.984 217.188 C 283.425 216.615,282.909 216.146,282.837 216.146 C 282.765 216.146,283.165 216.615,283.724 217.188 M324.316 249.089 C 324.317 250.664,324.360 251.275,324.411 250.446 C 324.463 249.617,324.463 248.328,324.410 247.582 C 324.358 246.835,324.316 247.513,324.316 249.089 M175.872 249.219 C 175.872 250.436,175.917 250.934,175.972 250.326 C 176.027 249.717,176.027 248.721,175.972 248.112 C 175.917 247.503,175.872 248.001,175.872 249.219 M22.717 261.198 C 22.717 261.699,22.770 261.904,22.836 261.654 C 22.901 261.403,22.901 260.993,22.836 260.742 C 22.770 260.492,22.717 260.697,22.717 261.198 M196.224 300.260 C 196.929 300.977,197.565 301.563,197.637 301.563 C 197.708 301.563,197.190 300.977,196.484 300.260 C 195.779 299.544,195.143 298.958,195.072 298.958 C 195.000 298.958,195.519 299.544,196.224 300.260 M198.947 302.930 C 200.027 304.079,200.260 304.286,200.260 304.091 C 200.260 304.049,199.704 303.492,199.023 302.854 L 197.786 301.693 198.947 302.930 M131.571 308.854 C 131.571 309.355,131.624 309.561,131.690 309.310 C 131.755 309.059,131.755 308.649,131.690 308.398 C 131.624 308.148,131.571 308.353,131.571 308.854 M246.680 323.357 C 246.930 323.422,247.340 323.422,247.591 323.357 C 247.842 323.291,247.637 323.238,247.135 323.238 C 246.634 323.238,246.429 323.291,246.680 323.357 M252.803 323.361 C 253.126 323.424,253.595 323.421,253.844 323.356 C 254.093 323.291,253.828 323.240,253.255 323.243 C 252.682 323.246,252.479 323.299,252.803 323.361 M148.828 348.698 C 149.388 349.271,149.904 349.740,149.975 349.740 C 150.047 349.740,149.648 349.271,149.089 348.698 C 148.529 348.125,148.013 347.656,147.941 347.656 C 147.870 347.656,148.269 348.125,148.828 348.698 M350.899 348.763 L 349.870 349.870 350.977 348.840 C 352.006 347.883,352.203 347.656,352.006 347.656 C 351.963 347.656,351.465 348.154,350.899 348.763 M151.432 351.302 C 151.992 351.875,152.508 352.344,152.580 352.344 C 152.651 352.344,152.252 351.875,151.693 351.302 C 151.133 350.729,150.617 350.260,150.545 350.260 C 150.474 350.260,150.873 350.729,151.432 351.302 M348.295 351.367 L 347.266 352.474 348.372 351.445 C 349.402 350.487,349.599 350.260,349.402 350.260 C 349.359 350.260,348.861 350.758,348.295 351.367 M130.078 369.271 C 130.638 369.844,131.154 370.313,131.225 370.313 C 131.297 370.313,130.898 369.844,130.339 369.271 C 129.779 368.698,129.263 368.229,129.191 368.229 C 129.120 368.229,129.519 368.698,130.078 369.271 M85.807 407.552 C 86.513 408.268,87.148 408.854,87.220 408.854 C 87.292 408.854,86.773 408.268,86.068 407.552 C 85.362 406.836,84.727 406.250,84.655 406.250 C 84.583 406.250,85.102 406.836,85.807 407.552 M91.927 413.672 C 92.850 414.603,93.663 415.365,93.735 415.365 C 93.807 415.365,93.110 414.603,92.188 413.672 C 91.265 412.741,90.451 411.979,90.380 411.979 C 90.308 411.979,91.004 412.741,91.927 413.672 M95.833 417.269 C 95.833 417.314,96.214 417.695,96.680 418.115 L 97.526 418.880 96.761 418.034 C 96.048 417.245,95.833 417.068,95.833 417.269 M238.480 477.268 C 238.804 477.330,239.272 477.327,239.521 477.262 C 239.770 477.197,239.505 477.146,238.932 477.149 C 238.359 477.152,238.156 477.205,238.480 477.268 M260.615 477.268 C 260.939 477.330,261.408 477.327,261.657 477.262 C 261.906 477.197,261.641 477.146,261.068 477.149 C 260.495 477.152,260.291 477.205,260.615 477.268 M247.721 477.538 C 248.975 477.585,251.025 477.585,252.279 477.538 C 253.532 477.490,252.507 477.451,250.000 477.451 C 247.493 477.451,246.468 477.490,247.721 477.538 " stroke="none" fill="#949494" fill-rule="evenodd"></path><path id="path2" d="M190.755 131.684 C 160.772 133.677,136.624 156.176,132.109 186.328 C 131.381 191.185,131.385 308.856,132.113 313.672 C 136.432 342.259,157.741 363.568,186.328 367.887 C 190.464 368.512,307.998 368.629,312.630 368.013 C 342.027 364.102,364.102 342.027,368.013 312.630 C 368.523 308.793,368.523 191.207,368.013 187.370 C 364.189 158.624,343.122 136.929,314.453 132.213 C 311.366 131.705,197.748 131.219,190.755 131.684 M98.265 166.467 C 85.398 180.823,72.925 194.739,70.548 197.391 C 68.171 200.044,56.423 213.150,44.441 226.516 L 22.656 250.818 22.656 254.716 C 22.656 256.860,22.777 260.631,22.924 263.096 C 30.623 392.107,142.834 488.300,271.745 476.399 C 274.180 476.175,276.309 475.914,276.476 475.821 C 276.643 475.727,282.508 468.268,289.509 459.245 C 296.511 450.221,306.152 437.799,310.935 431.641 C 337.433 397.518,345.573 387.000,345.573 386.884 C 345.573 386.813,344.372 387.319,342.904 388.008 C 335.616 391.429,327.244 393.899,317.969 395.366 L 314.193 395.964 250.000 395.964 L 185.807 395.964 182.031 395.366 C 137.878 388.383,106.046 353.266,103.905 309.179 C 103.578 302.454,103.576 197.593,103.902 190.875 C 104.785 172.699,111.409 153.674,121.148 141.341 C 123.391 138.500,119.650 142.608,98.265 166.467 M329.241 157.415 C 340.525 159.806,344.347 173.939,335.815 181.721 C 326.499 190.218,311.645 183.171,312.315 170.573 C 312.783 161.783,320.724 155.610,329.241 157.415 M258.594 175.408 C 320.152 182.535,346.406 257.780,302.614 301.572 C 261.516 342.669,191.408 322.757,177.882 266.146 C 166.008 216.450,207.751 169.521,258.594 175.408 M246.354 202.862 C 210.808 205.752,191.618 246.631,212.119 275.790 C 232.444 304.700,276.727 301.106,291.969 269.310 C 307.432 237.053,281.972 199.967,246.354 202.862 " stroke="none" fill="#848484" fill-rule="evenodd"></path><path id="path3" d="M243.555 22.587 C 244.235 22.641,245.348 22.641,246.029 22.587 C 246.709 22.534,246.152 22.490,244.792 22.490 C 243.431 22.490,242.874 22.534,243.555 22.587 M253.971 22.587 C 254.652 22.641,255.765 22.641,256.445 22.587 C 257.126 22.534,256.569 22.490,255.208 22.490 C 253.848 22.490,253.291 22.534,253.971 22.587 M237.044 22.836 C 237.295 22.901,237.705 22.901,237.956 22.836 C 238.206 22.770,238.001 22.717,237.500 22.717 C 236.999 22.717,236.794 22.770,237.044 22.836 M262.044 22.836 C 262.295 22.901,262.705 22.901,262.956 22.836 C 263.206 22.770,263.001 22.717,262.500 22.717 C 261.999 22.717,261.794 22.770,262.044 22.836 M232.878 23.096 C 233.128 23.162,233.538 23.162,233.789 23.096 C 234.040 23.031,233.835 22.977,233.333 22.977 C 232.832 22.977,232.627 23.031,232.878 23.096 M266.211 23.096 C 266.462 23.162,266.872 23.162,267.122 23.096 C 267.373 23.031,267.168 22.977,266.667 22.977 C 266.165 22.977,265.960 23.031,266.211 23.096 M94.517 83.789 L 93.620 84.766 94.596 83.868 C 95.133 83.375,95.573 82.935,95.573 82.892 C 95.573 82.693,95.353 82.880,94.517 83.789 M405.208 83.724 C 405.694 84.225,406.150 84.635,406.222 84.635 C 406.294 84.635,405.955 84.225,405.469 83.724 C 404.983 83.223,404.527 82.813,404.455 82.813 C 404.384 82.813,404.722 83.223,405.208 83.724 M415.365 93.831 C 415.365 93.876,415.745 94.257,416.211 94.678 L 417.057 95.443 416.292 94.596 C 415.579 93.807,415.365 93.630,415.365 93.831 M83.447 94.857 L 82.682 95.703 83.529 94.938 C 83.994 94.518,84.375 94.137,84.375 94.092 C 84.375 93.891,84.160 94.068,83.447 94.857 M189.000 104.090 C 189.324 104.153,189.793 104.150,190.042 104.085 C 190.291 104.020,190.026 103.969,189.453 103.972 C 188.880 103.975,188.676 104.028,189.000 104.090 M310.094 104.090 C 310.418 104.153,310.887 104.150,311.136 104.085 C 311.385 104.020,311.120 103.969,310.547 103.972 C 309.974 103.975,309.770 104.028,310.094 104.090 M127.718 133.398 L 126.953 134.245 127.799 133.480 C 128.265 133.059,128.646 132.678,128.646 132.634 C 128.646 132.432,128.431 132.610,127.718 133.398 M371.354 132.634 C 371.354 132.678,371.735 133.059,372.201 133.480 L 373.047 134.245 372.282 133.398 C 371.569 132.610,371.354 132.432,371.354 132.634 M245.638 175.180 C 245.889 175.245,246.299 175.245,246.549 175.180 C 246.800 175.114,246.595 175.060,246.094 175.060 C 245.592 175.060,245.387 175.114,245.638 175.180 M253.711 175.180 C 253.962 175.245,254.372 175.245,254.622 175.180 C 254.873 175.114,254.668 175.060,254.167 175.060 C 253.665 175.060,253.460 175.114,253.711 175.180 M395.899 189.453 C 395.902 190.026,395.955 190.230,396.018 189.906 C 396.080 189.582,396.077 189.113,396.012 188.864 C 395.947 188.615,395.896 188.880,395.899 189.453 M103.972 189.714 C 103.975 190.286,104.028 190.490,104.090 190.166 C 104.153 189.842,104.150 189.374,104.085 189.125 C 104.020 188.876,103.969 189.141,103.972 189.714 M195.687 198.763 L 194.922 199.609 195.768 198.845 C 196.234 198.424,196.615 198.043,196.615 197.998 C 196.615 197.797,196.400 197.974,195.687 198.763 M22.977 233.333 C 22.977 233.835,23.031 234.040,23.096 233.789 C 23.162 233.538,23.162 233.128,23.096 232.878 C 23.031 232.627,22.977 232.832,22.977 233.333 M476.883 233.333 C 476.883 233.835,476.937 234.040,477.002 233.789 C 477.068 233.538,477.068 233.128,477.002 232.878 C 476.937 232.627,476.883 232.832,476.883 233.333 M22.722 237.370 C 22.725 237.943,22.778 238.146,22.840 237.822 C 22.903 237.499,22.900 237.030,22.835 236.781 C 22.770 236.532,22.719 236.797,22.722 237.370 M477.144 237.500 C 477.144 238.001,477.197 238.206,477.263 237.956 C 477.328 237.705,477.328 237.295,477.263 237.044 C 477.197 236.794,477.144 236.999,477.144 237.500 M22.490 244.531 C 22.490 245.892,22.534 246.449,22.587 245.768 C 22.641 245.088,22.641 243.975,22.587 243.294 C 22.534 242.614,22.490 243.171,22.490 244.531 M477.438 244.792 C 477.438 246.152,477.482 246.709,477.535 246.029 C 477.589 245.348,477.589 244.235,477.535 243.555 C 477.482 242.874,477.438 243.431,477.438 244.792 M176.102 244.271 C 176.102 244.772,176.156 244.977,176.221 244.727 C 176.287 244.476,176.287 244.066,176.221 243.815 C 176.156 243.564,176.102 243.770,176.102 244.271 M296.680 249.089 C 296.683 249.661,296.736 249.865,296.799 249.541 C 296.861 249.217,296.859 248.749,296.794 248.500 C 296.728 248.251,296.677 248.516,296.680 249.089 M477.438 255.208 C 477.438 256.569,477.482 257.126,477.535 256.445 C 477.589 255.765,477.589 254.652,477.535 253.971 C 477.482 253.291,477.438 253.848,477.438 255.208 M324.019 254.427 C 324.019 254.928,324.072 255.133,324.138 254.883 C 324.203 254.632,324.203 254.222,324.138 253.971 C 324.072 253.721,324.019 253.926,324.019 254.427 M22.481 256.380 C 22.482 257.383,22.530 257.761,22.586 257.221 C 22.642 256.680,22.641 255.860,22.584 255.398 C 22.526 254.936,22.480 255.378,22.481 256.380 M477.144 262.500 C 477.144 263.001,477.197 263.206,477.263 262.956 C 477.328 262.705,477.328 262.295,477.263 262.044 C 477.197 261.794,477.144 261.999,477.144 262.500 M22.717 262.760 C 22.717 263.262,22.770 263.467,22.836 263.216 C 22.901 262.965,22.901 262.555,22.836 262.305 C 22.770 262.054,22.717 262.259,22.717 262.760 M476.883 266.667 C 476.883 267.168,476.937 267.373,477.002 267.122 C 477.068 266.872,477.068 266.462,477.002 266.211 C 476.937 265.960,476.883 266.165,476.883 266.667 M22.977 266.927 C 22.977 267.428,23.031 267.633,23.096 267.383 C 23.162 267.132,23.162 266.722,23.096 266.471 C 23.031 266.221,22.977 266.426,22.977 266.927 M282.936 282.096 L 281.120 283.984 283.008 282.168 C 284.761 280.482,285.015 280.208,284.824 280.208 C 284.784 280.208,283.934 281.058,282.936 282.096 M217.057 282.031 C 217.908 282.891,218.662 283.594,218.734 283.594 C 218.805 283.594,218.168 282.891,217.318 282.031 C 216.467 281.172,215.713 280.469,215.641 280.469 C 215.570 280.469,216.207 281.172,217.057 282.031 M248.902 295.765 C 249.659 295.818,250.831 295.817,251.506 295.764 C 252.182 295.711,251.563 295.667,250.130 295.668 C 248.698 295.669,248.145 295.712,248.902 295.765 M302.464 301.628 L 301.172 302.995 302.539 301.702 C 303.809 300.502,304.026 300.260,303.831 300.260 C 303.790 300.260,303.175 300.876,302.464 301.628 M103.972 310.286 C 103.975 310.859,104.028 311.063,104.090 310.739 C 104.153 310.415,104.150 309.946,104.085 309.697 C 104.020 309.449,103.969 309.714,103.972 310.286 M395.899 310.547 C 395.902 311.120,395.955 311.324,396.018 311.000 C 396.080 310.676,396.077 310.207,396.012 309.958 C 395.947 309.709,395.896 309.974,395.899 310.547 M249.031 323.369 C 249.716 323.423,250.771 323.422,251.375 323.367 C 251.979 323.313,251.419 323.269,250.130 323.270 C 248.841 323.270,248.347 323.315,249.031 323.369 M132.292 371.175 C 132.292 371.220,132.673 371.601,133.138 372.022 L 133.984 372.786 133.220 371.940 C 132.507 371.151,132.292 370.974,132.292 371.175 M366.780 371.940 L 366.016 372.786 366.862 372.022 C 367.651 371.309,367.828 371.094,367.627 371.094 C 367.582 371.094,367.201 371.475,366.780 371.940 M189.388 396.013 C 189.639 396.078,190.049 396.078,190.299 396.013 C 190.550 395.947,190.345 395.894,189.844 395.894 C 189.342 395.894,189.137 395.947,189.388 396.013 M309.701 396.013 C 309.951 396.078,310.361 396.078,310.612 396.013 C 310.863 395.947,310.658 395.894,310.156 395.894 C 309.655 395.894,309.450 395.947,309.701 396.013 M83.073 404.769 C 83.073 404.814,83.454 405.195,83.919 405.615 L 84.766 406.380 84.001 405.534 C 83.288 404.745,83.073 404.568,83.073 404.769 M415.739 405.794 L 414.974 406.641 415.820 405.876 C 416.609 405.163,416.786 404.948,416.585 404.948 C 416.540 404.948,416.160 405.329,415.739 405.794 M405.455 416.081 L 404.557 417.057 405.534 416.160 C 406.071 415.666,406.510 415.227,406.510 415.183 C 406.510 414.984,406.290 415.172,405.455 416.081 M93.750 415.446 C 93.750 415.491,94.131 415.872,94.596 416.292 L 95.443 417.057 94.678 416.211 C 93.965 415.422,93.750 415.245,93.750 415.446 M232.617 477.002 C 232.868 477.068,233.278 477.068,233.529 477.002 C 233.779 476.937,233.574 476.883,233.073 476.883 C 232.572 476.883,232.367 476.937,232.617 477.002 M266.471 477.002 C 266.722 477.068,267.132 477.068,267.383 477.002 C 267.633 476.937,267.428 476.883,266.927 476.883 C 266.426 476.883,266.221 476.937,266.471 477.002 M236.784 477.263 C 237.035 477.328,237.445 477.328,237.695 477.263 C 237.946 477.197,237.741 477.144,237.240 477.144 C 236.738 477.144,236.533 477.197,236.784 477.263 M262.305 477.263 C 262.555 477.328,262.965 477.328,263.216 477.263 C 263.467 477.197,263.262 477.144,262.760 477.144 C 262.259 477.144,262.054 477.197,262.305 477.263 M242.898 477.532 C 243.360 477.589,244.180 477.590,244.721 477.534 C 245.261 477.477,244.883 477.430,243.880 477.429 C 242.878 477.428,242.436 477.474,242.898 477.532 M255.137 477.532 C 255.600 477.589,256.420 477.590,256.960 477.534 C 257.501 477.477,257.122 477.430,256.120 477.429 C 255.117 477.428,254.675 477.474,255.137 477.532 " stroke="none" fill="#cccccc" fill-rule="evenodd"></path></g></svg>