<svg id="svg" version="1.1" xmlns="http://www.w3.org/2000/svg" xmlns:xlink="http://www.w3.org/1999/xlink" width="400" height="400" viewBox="0, 0, 400,400"><g id="svgg"><path id="path4" d="M64.834 127.000 C 64.864 127.459,65.025 127.634,65.441 127.658 C 65.882 127.684,65.899 127.667,65.519 127.580 C 65.251 127.519,64.977 127.223,64.912 126.922 C 64.813 126.466,64.800 126.480,64.834 127.000 M159.270 126.921 C 159.255 127.318,159.062 127.495,158.563 127.571 L 157.875 127.675 158.570 127.713 C 159.280 127.751,159.659 127.296,159.418 126.696 C 159.347 126.519,159.281 126.621,159.270 126.921 M129.329 127.125 C 129.364 127.464,129.580 127.638,130.003 127.666 C 130.524 127.700,130.536 127.688,130.078 127.588 C 129.777 127.523,129.474 127.279,129.405 127.047 C 129.314 126.743,129.293 126.765,129.329 127.125 M84.822 144.125 C 84.823 144.813,84.872 145.064,84.929 144.684 C 84.987 144.304,84.985 143.742,84.926 143.434 C 84.867 143.127,84.820 143.438,84.822 144.125 M149.318 145.000 C 149.318 145.619,149.367 145.872,149.426 145.563 C 149.486 145.253,149.486 144.747,149.426 144.438 C 149.367 144.128,149.318 144.381,149.318 145.000 M74.818 147.000 C 74.818 147.619,74.867 147.872,74.926 147.563 C 74.986 147.253,74.986 146.747,74.926 146.438 C 74.867 146.128,74.818 146.381,74.818 147.000 M139.334 147.750 C 139.334 148.781,139.378 149.203,139.432 148.688 C 139.486 148.172,139.486 147.328,139.432 146.813 C 139.378 146.297,139.334 146.719,139.334 147.750 M84.616 163.625 C 84.616 170.500,84.648 173.277,84.687 169.795 C 84.727 166.314,84.727 160.689,84.687 157.295 C 84.648 153.902,84.616 156.750,84.616 163.625 M115.750 160.625 C 115.143 161.244,114.702 161.750,114.771 161.750 C 114.840 161.750,115.393 161.244,116.000 160.625 C 116.607 160.006,117.048 159.500,116.979 159.500 C 116.910 159.500,116.357 160.006,115.750 160.625 M106.867 162.563 L 105.375 164.125 106.938 162.633 C 108.389 161.247,108.614 161.000,108.430 161.000 C 108.391 161.000,107.688 161.703,106.867 162.563 M227.009 173.614 C 226.679 174.012,226.855 174.502,227.327 174.496 C 227.514 174.494,227.491 174.408,227.266 174.265 C 226.969 174.077,226.963 173.971,227.234 173.644 C 227.414 173.427,227.505 173.250,227.436 173.250 C 227.367 173.250,227.175 173.414,227.009 173.614 M245.318 177.000 C 245.318 177.619,245.367 177.872,245.426 177.563 C 245.486 177.253,245.486 176.747,245.426 176.438 C 245.367 176.128,245.318 176.381,245.318 177.000 M84.596 185.000 C 84.596 186.719,84.636 187.422,84.685 186.563 C 84.734 185.703,84.734 184.297,84.685 183.438 C 84.636 182.578,84.596 183.281,84.596 185.000 M222.463 182.813 C 222.589 182.939,222.958 183.000,223.284 182.949 C 223.784 182.871,223.749 182.835,223.055 182.720 C 222.558 182.638,222.325 182.675,222.463 182.813 M224.313 182.922 C 224.553 182.985,224.947 182.985,225.188 182.922 C 225.428 182.859,225.231 182.808,224.750 182.808 C 224.269 182.808,224.072 182.859,224.313 182.922 M242.688 182.931 C 243.134 182.986,243.866 182.986,244.313 182.931 C 244.759 182.875,244.394 182.830,243.500 182.830 C 242.606 182.830,242.241 182.875,242.688 182.931 M245.563 182.922 C 245.803 182.985,246.197 182.985,246.438 182.922 C 246.678 182.859,246.481 182.808,246.000 182.808 C 245.519 182.808,245.322 182.859,245.563 182.922 M70.313 184.922 C 70.553 184.985,70.947 184.985,71.188 184.922 C 71.428 184.859,71.231 184.808,70.750 184.808 C 70.269 184.808,70.072 184.859,70.313 184.922 M72.313 184.922 C 72.553 184.985,72.947 184.985,73.188 184.922 C 73.428 184.859,73.231 184.808,72.750 184.808 C 72.269 184.808,72.072 184.859,72.313 184.922 M203.839 189.125 C 203.838 190.363,203.880 190.900,203.933 190.320 C 203.985 189.740,203.986 188.727,203.934 188.070 C 203.882 187.413,203.840 187.887,203.839 189.125 M56.863 189.563 L 55.875 190.625 56.938 189.637 C 57.926 188.718,58.115 188.500,57.926 188.500 C 57.885 188.500,57.407 188.978,56.863 189.563 M175.568 205.000 C 175.568 205.619,175.617 205.872,175.676 205.563 C 175.736 205.253,175.736 204.747,175.676 204.438 C 175.617 204.128,175.568 204.381,175.568 205.000 M185.313 206.875 C 185.316 207.425,185.367 207.621,185.427 207.310 C 185.487 206.999,185.484 206.549,185.422 206.310 C 185.359 206.071,185.310 206.325,185.313 206.875 M243.625 207.750 L 242.875 207.941 243.548 207.970 C 243.918 207.987,244.290 207.887,244.375 207.750 C 244.460 207.613,244.495 207.513,244.452 207.530 C 244.410 207.546,244.037 207.645,243.625 207.750 M295.875 207.750 L 295.125 207.941 295.798 207.970 C 296.168 207.987,296.540 207.887,296.625 207.750 C 296.710 207.613,296.745 207.513,296.702 207.530 C 296.660 207.546,296.288 207.645,295.875 207.750 M230.063 207.922 C 230.303 207.985,230.697 207.985,230.938 207.922 C 231.178 207.859,230.981 207.808,230.500 207.808 C 230.019 207.808,229.822 207.859,230.063 207.922 M299.563 207.922 C 299.803 207.985,300.197 207.985,300.438 207.922 C 300.678 207.859,300.481 207.808,300.000 207.808 C 299.519 207.808,299.322 207.859,299.563 207.922 M303.438 207.936 C 304.434 207.983,306.066 207.983,307.063 207.936 C 308.059 207.888,307.244 207.849,305.250 207.849 C 303.256 207.849,302.441 207.888,303.438 207.936 M100.558 208.750 C 100.558 209.231,100.609 209.428,100.672 209.188 C 100.735 208.947,100.735 208.553,100.672 208.313 C 100.609 208.072,100.558 208.269,100.558 208.750 M349.495 216.175 C 349.429 216.891,349.467 217.384,349.579 217.272 C 349.690 217.160,349.745 216.575,349.699 215.971 L 349.616 214.875 349.495 216.175 M74.818 217.000 C 74.818 217.619,74.867 217.872,74.926 217.563 C 74.986 217.253,74.986 216.747,74.926 216.438 C 74.867 216.128,74.818 216.381,74.818 217.000 M270.313 218.125 C 270.316 218.675,270.367 218.871,270.427 218.560 C 270.487 218.249,270.484 217.799,270.422 217.560 C 270.359 217.321,270.310 217.575,270.313 218.125 M352.108 223.875 C 352.108 227.313,352.143 228.753,352.187 227.077 C 352.230 225.401,352.230 222.588,352.187 220.827 C 352.144 219.066,352.109 220.438,352.108 223.875 M248.587 220.000 C 248.587 221.169,248.630 221.647,248.683 221.063 C 248.736 220.478,248.736 219.522,248.683 218.938 C 248.630 218.353,248.587 218.831,248.587 220.000 M338.090 220.250 C 338.090 221.556,338.132 222.091,338.184 221.438 C 338.235 220.784,338.235 219.716,338.184 219.063 C 338.132 218.409,338.090 218.944,338.090 220.250 M303.601 225.875 C 303.602 228.075,303.640 228.942,303.686 227.801 C 303.733 226.660,303.732 224.860,303.686 223.801 C 303.639 222.742,303.601 223.675,303.601 225.875 M248.601 226.125 C 248.602 228.325,248.640 229.192,248.686 228.051 C 248.733 226.910,248.732 225.110,248.686 224.051 C 248.639 222.992,248.601 223.925,248.601 226.125 M338.098 226.750 C 338.098 228.606,338.137 229.366,338.185 228.438 C 338.233 227.509,338.233 225.991,338.185 225.063 C 338.137 224.134,338.098 224.894,338.098 226.750 M270.313 229.875 C 270.316 230.425,270.367 230.621,270.427 230.310 C 270.487 229.999,270.484 229.549,270.422 229.310 C 270.359 229.071,270.310 229.325,270.313 229.875 M94.625 236.000 C 94.625 236.386,94.709 236.650,94.813 236.586 C 94.916 236.523,95.000 236.259,95.000 236.000 C 95.000 235.741,94.916 235.477,94.813 235.414 C 94.709 235.350,94.625 235.614,94.625 236.000 M168.987 247.188 L 168.125 248.125 169.063 247.263 C 169.935 246.462,170.115 246.250,169.924 246.250 C 169.882 246.250,169.460 246.672,168.987 247.188 M137.563 260.172 C 137.803 260.235,138.197 260.235,138.438 260.172 C 138.678 260.109,138.481 260.058,138.000 260.058 C 137.519 260.058,137.322 260.109,137.563 260.172 " stroke="none" fill="#c5bcb7" fill-rule="evenodd"></path><path id="path5" d="M238.566 164.679 C 238.946 164.737,239.508 164.735,239.816 164.676 C 240.123 164.617,239.813 164.570,239.125 164.572 C 238.438 164.573,238.186 164.622,238.566 164.679 M123.109 168.313 L 122.375 169.125 123.188 168.391 C 123.945 167.706,124.115 167.500,123.922 167.500 C 123.879 167.500,123.513 167.866,123.109 168.313 M224.105 173.625 C 224.105 176.375,224.141 177.534,224.186 176.201 C 224.231 174.867,224.231 172.617,224.187 171.201 C 224.142 169.784,224.105 170.875,224.105 173.625 M230.690 173.427 C 231.001 173.487,231.451 173.484,231.690 173.422 C 231.929 173.359,231.675 173.310,231.125 173.313 C 230.575 173.316,230.379 173.367,230.690 173.427 M243.591 177.625 C 243.592 179.000,243.634 179.531,243.685 178.804 C 243.735 178.078,243.735 176.953,243.683 176.304 C 243.632 175.656,243.591 176.250,243.591 177.625 M84.596 179.000 C 84.596 180.719,84.636 181.422,84.685 180.563 C 84.734 179.703,84.734 178.297,84.685 177.438 C 84.636 176.578,84.596 177.281,84.596 179.000 M84.614 198.000 C 84.614 203.569,84.647 205.847,84.687 203.063 C 84.727 200.278,84.727 195.722,84.687 192.938 C 84.647 190.153,84.614 192.431,84.614 198.000 M230.070 189.684 C 230.727 189.736,231.740 189.735,232.320 189.683 C 232.900 189.630,232.363 189.588,231.125 189.589 C 229.887 189.590,229.413 189.632,230.070 189.684 M240.688 189.683 C 241.272 189.736,242.228 189.736,242.813 189.683 C 243.397 189.630,242.919 189.587,241.750 189.587 C 240.581 189.587,240.103 189.630,240.688 189.683 M246.570 189.684 C 247.227 189.736,248.240 189.735,248.820 189.683 C 249.400 189.630,248.863 189.588,247.625 189.589 C 246.387 189.590,245.913 189.632,246.570 189.684 M257.320 189.684 C 257.977 189.736,258.990 189.735,259.570 189.683 C 260.150 189.630,259.613 189.588,258.375 189.589 C 257.137 189.590,256.663 189.632,257.320 189.684 M292.813 189.684 C 293.466 189.735,294.534 189.735,295.188 189.684 C 295.841 189.632,295.306 189.590,294.000 189.590 C 292.694 189.590,292.159 189.632,292.813 189.684 M297.661 189.692 C 297.595 189.798,298.011 189.848,298.584 189.804 C 300.266 189.674,300.471 189.560,299.077 189.529 C 298.363 189.513,297.726 189.586,297.661 189.692 M302.063 189.679 C 302.441 189.736,303.059 189.736,303.438 189.679 C 303.816 189.622,303.506 189.575,302.750 189.575 C 301.994 189.575,301.684 189.622,302.063 189.679 M305.823 189.686 C 306.757 189.734,308.219 189.733,309.073 189.685 C 309.927 189.636,309.163 189.597,307.375 189.597 C 305.587 189.598,304.889 189.637,305.823 189.686 M312.813 189.679 C 313.191 189.736,313.809 189.736,314.188 189.679 C 314.566 189.622,314.256 189.575,313.500 189.575 C 312.744 189.575,312.434 189.622,312.813 189.679 M323.320 189.684 C 323.977 189.736,324.990 189.735,325.570 189.683 C 326.150 189.630,325.613 189.588,324.375 189.589 C 323.137 189.590,322.663 189.632,323.320 189.684 M313.603 195.625 C 313.604 198.100,313.641 199.079,313.686 197.800 C 313.732 196.521,313.732 194.496,313.686 193.300 C 313.640 192.104,313.603 193.150,313.603 195.625 M230.358 198.750 C 230.358 202.119,230.393 203.497,230.437 201.813 C 230.480 200.128,230.480 197.372,230.437 195.688 C 230.393 194.003,230.358 195.381,230.358 198.750 M175.558 203.250 C 175.558 203.731,175.609 203.928,175.672 203.688 C 175.735 203.447,175.735 203.053,175.672 202.813 C 175.609 202.572,175.558 202.769,175.558 203.250 M185.318 205.000 C 185.318 205.619,185.367 205.872,185.426 205.563 C 185.486 205.253,185.486 204.747,185.426 204.438 C 185.367 204.128,185.318 204.381,185.318 205.000 M175.568 207.000 C 175.568 207.619,175.617 207.872,175.676 207.563 C 175.736 207.253,175.736 206.747,175.676 206.438 C 175.617 206.128,175.568 206.381,175.568 207.000 M292.353 222.250 C 292.353 224.656,292.390 225.641,292.436 224.438 C 292.482 223.234,292.482 221.266,292.436 220.063 C 292.390 218.859,292.353 219.844,292.353 222.250 M224.087 221.000 C 224.087 222.169,224.130 222.647,224.183 222.063 C 224.236 221.478,224.236 220.522,224.183 219.938 C 224.130 219.353,224.087 219.831,224.087 221.000 M324.087 221.000 C 324.087 222.169,324.130 222.647,324.183 222.063 C 324.236 221.478,324.236 220.522,324.183 219.938 C 324.130 219.353,324.087 219.831,324.087 221.000 M238.105 224.000 C 238.105 226.681,238.141 227.778,238.186 226.438 C 238.231 225.097,238.231 222.903,238.186 221.563 C 238.141 220.222,238.105 221.319,238.105 224.000 M224.094 225.875 C 224.094 227.387,224.135 227.974,224.185 227.178 C 224.235 226.383,224.234 225.145,224.184 224.428 C 224.134 223.712,224.093 224.363,224.094 225.875 M324.094 225.875 C 324.094 227.387,324.135 227.974,324.185 227.178 C 324.235 226.383,324.234 225.145,324.184 224.428 C 324.134 223.712,324.093 224.363,324.094 225.875 M315.283 225.250 C 315.269 226.006,315.361 226.788,315.487 226.987 C 315.636 227.223,315.667 226.984,315.575 226.302 C 315.481 225.601,315.549 225.114,315.780 224.829 C 315.970 224.595,315.993 224.483,315.831 224.580 C 315.660 224.683,315.490 224.573,315.423 224.316 C 315.360 224.073,315.297 224.494,315.283 225.250 M73.062 236.687 C 77.016 236.726,83.484 236.726,87.437 236.687 C 91.391 236.649,88.156 236.617,80.250 236.617 C 72.344 236.617,69.109 236.649,73.062 236.687 M137.313 258.682 C 137.828 258.736,138.672 258.736,139.188 258.682 C 139.703 258.628,139.281 258.584,138.250 258.584 C 137.219 258.584,136.797 258.628,137.313 258.682 " stroke="none" fill="#b3aca4" fill-rule="evenodd"></path><path id="path0" d="M65.000 127.000 C 65.000 127.420,65.167 127.500,66.041 127.500 C 68.867 127.500,71.434 129.157,72.740 131.826 C 74.666 135.760,74.950 139.592,75.163 164.500 L 75.329 183.875 71.727 183.880 C 56.125 183.902,46.260 199.712,53.144 213.662 C 56.766 221.003,65.103 225.783,73.033 225.064 C 74.747 224.908,74.651 224.503,73.767 228.174 C 72.635 232.877,69.800 235.500,65.849 235.500 C 65.167 235.500,65.000 235.598,65.000 236.000 C 65.000 236.494,65.167 236.500,79.750 236.500 C 93.970 236.500,94.500 236.483,94.500 236.034 C 94.500 235.658,94.244 235.539,93.163 235.412 C 88.141 234.821,86.104 231.862,85.103 223.702 L 84.714 220.529 86.238 218.952 C 87.076 218.085,88.519 216.394,89.444 215.195 C 91.501 212.528,91.374 212.526,91.720 215.227 C 92.750 223.255,96.427 232.902,100.974 239.500 C 105.817 246.529,112.685 252.593,119.275 255.657 C 143.774 267.051,170.610 255.045,181.097 228.000 C 181.996 225.683,182.053 225.604,183.447 224.767 C 209.443 209.149,210.527 170.896,185.447 154.186 C 174.442 146.853,164.140 145.200,149.583 148.430 C 149.088 148.540,149.049 148.466,149.137 147.588 C 149.189 147.058,149.291 144.938,149.363 142.875 C 149.722 132.491,152.348 127.868,158.123 127.448 C 158.841 127.395,159.144 127.252,159.204 126.936 C 159.283 126.520,158.491 126.499,144.456 126.561 C 131.468 126.617,129.625 126.672,129.625 127.000 C 129.625 127.250,129.917 127.396,130.500 127.438 C 136.838 127.897,139.244 132.898,139.548 146.250 L 139.625 149.625 136.375 149.786 C 109.639 151.107,90.627 174.687,91.037 206.020 L 91.110 211.665 89.006 214.352 C 85.934 218.275,84.932 219.237,84.716 218.467 C 84.325 217.075,84.483 145.263,84.886 141.107 C 85.819 131.473,88.324 127.500,93.463 127.500 C 94.333 127.500,94.500 127.420,94.500 127.000 C 94.500 126.506,94.333 126.500,79.750 126.500 C 65.167 126.500,65.000 126.506,65.000 127.000 M167.845 148.143 C 177.943 149.711,186.485 154.553,193.631 162.757 C 205.397 176.268,205.643 201.064,194.141 214.178 C 189.871 219.046,186.171 222.326,183.154 223.917 C 182.314 224.360,182.294 224.703,183.353 220.553 C 190.785 191.453,176.410 160.125,151.939 152.089 C 148.783 151.053,147.945 150.139,149.583 149.516 C 153.698 147.951,162.399 147.297,167.845 148.143 M139.750 151.992 C 139.750 152.922,139.661 153.043,138.308 153.942 C 135.119 156.060,128.081 161.938,124.875 165.161 C 117.295 172.781,112.790 178.754,101.805 195.750 L 100.755 197.375 100.757 196.500 C 100.760 195.331,101.357 191.224,101.984 188.065 C 106.385 165.874,120.304 151.231,137.188 151.030 L 139.750 151.000 139.750 151.992 M152.250 154.429 C 171.750 164.794,181.053 197.251,172.833 226.246 C 172.503 227.413,172.152 228.443,172.054 228.534 C 171.602 228.956,163.750 230.180,163.750 229.829 C 163.750 229.792,163.975 229.394,164.249 228.944 C 166.038 226.010,162.735 222.524,159.917 224.370 C 157.911 225.685,158.128 229.275,160.262 230.081 C 160.668 230.234,161.000 230.447,161.000 230.555 C 161.000 231.043,168.041 230.551,171.062 229.851 L 171.748 229.692 171.402 230.659 C 162.169 256.441,137.669 266.568,119.564 252.085 C 107.512 242.445,100.500 225.305,100.402 205.246 L 100.375 199.617 103.484 194.746 C 107.717 188.116,110.405 184.118,113.707 179.545 C 118.268 173.227,124.134 166.707,129.507 161.982 C 133.338 158.613,139.308 154.141,139.593 154.427 C 139.679 154.513,139.750 163.511,139.750 174.422 L 139.750 194.261 144.313 194.193 L 148.875 194.125 148.939 173.546 L 149.003 152.967 149.564 153.134 C 149.873 153.225,151.081 153.808,152.250 154.429 M231.079 164.840 C 235.104 166.369,234.066 169.522,228.688 172.098 C 227.897 172.477,227.250 172.894,227.250 173.025 C 227.250 173.156,227.602 173.081,228.032 172.858 C 228.462 172.636,229.334 172.297,229.970 172.104 C 235.654 170.385,236.612 165.201,231.353 164.615 L 230.125 164.478 231.079 164.840 M223.341 165.069 C 224.668 166.040,224.668 181.460,223.341 182.431 C 222.973 182.700,223.197 182.748,224.765 182.734 C 226.134 182.722,226.476 182.659,226.063 182.492 L 225.500 182.266 225.500 173.770 C 225.500 165.943,225.534 165.255,225.938 165.020 C 226.265 164.829,225.941 164.763,224.640 164.758 C 223.172 164.751,222.972 164.799,223.341 165.069 M237.887 165.033 C 238.482 165.322,238.650 165.572,240.095 168.323 C 240.688 169.452,241.761 171.431,242.480 172.722 L 243.787 175.069 243.706 178.432 C 243.629 181.617,243.594 181.821,243.035 182.273 L 242.445 182.750 244.500 182.750 L 246.555 182.750 245.965 182.273 C 245.402 181.818,245.371 181.628,245.293 178.210 C 245.238 175.788,245.109 174.503,244.895 174.250 C 244.579 173.876,242.776 170.601,241.455 168.000 C 240.705 166.524,240.569 165.531,241.050 165.050 C 241.283 164.817,240.908 164.754,239.363 164.767 C 237.859 164.780,237.500 164.844,237.887 165.033 M249.188 164.916 C 249.748 165.142,249.518 166.505,248.616 168.303 C 248.129 169.272,247.786 170.119,247.853 170.186 C 247.920 170.253,248.121 169.980,248.300 169.578 C 249.209 167.537,250.590 165.284,251.077 165.049 C 251.533 164.828,251.395 164.784,250.250 164.787 C 249.494 164.788,249.016 164.846,249.188 164.916 M212.500 188.000 C 212.500 202.833,212.585 210.500,212.750 210.500 C 212.915 210.500,213.000 202.833,213.000 188.000 C 213.000 173.167,212.915 165.500,212.750 165.500 C 212.585 165.500,212.500 173.167,212.500 188.000 M232.937 174.231 C 235.733 176.906,234.677 181.675,231.074 182.644 L 229.875 182.966 230.875 182.978 C 236.158 183.038,237.942 175.386,232.995 173.882 L 232.375 173.693 232.937 174.231 M74.974 184.902 C 75.571 185.091,75.071 223.265,74.464 223.870 C 73.789 224.543,68.248 224.132,65.402 223.198 C 52.514 218.967,47.591 202.915,55.948 192.375 C 59.740 187.593,63.544 185.579,70.500 184.670 C 71.233 184.574,74.468 184.742,74.974 184.902 M271.382 189.971 C 271.936 190.225,272.751 190.845,273.194 191.350 L 274.000 192.267 274.000 191.253 C 274.000 190.098,273.742 189.925,271.625 189.664 L 270.375 189.509 271.382 189.971 M286.190 189.981 C 286.776 190.254,287.653 190.905,288.139 191.426 L 289.022 192.375 288.948 191.377 C 288.863 190.221,288.394 189.905,286.375 189.645 L 285.125 189.484 286.190 189.981 M229.785 190.228 L 230.375 190.706 230.375 198.750 L 230.375 206.794 229.785 207.272 L 229.195 207.750 231.136 207.750 L 233.077 207.750 232.601 207.224 C 232.154 206.729,232.125 206.214,232.125 198.702 L 232.125 190.706 232.715 190.228 L 233.305 189.750 231.250 189.750 L 229.195 189.750 229.785 190.228 M240.155 189.996 C 240.969 190.324,241.041 191.073,241.023 198.912 C 241.006 206.008,240.884 207.307,240.204 207.579 C 240.023 207.651,240.768 207.719,241.860 207.730 C 243.499 207.747,243.774 207.695,243.434 207.438 C 242.614 206.815,242.500 205.770,242.501 198.921 C 242.503 191.685,242.661 190.371,243.578 190.002 C 243.954 189.851,243.420 189.782,241.875 189.782 C 240.380 189.782,239.803 189.854,240.155 189.996 M246.038 189.918 C 246.807 190.122,246.970 191.344,247.063 197.625 C 247.173 205.016,247.340 205.684,249.408 206.995 C 250.964 207.982,251.312 207.956,250.180 206.938 C 248.687 205.594,248.500 204.592,248.501 197.929 C 248.503 191.711,248.686 190.361,249.578 190.002 C 249.951 189.852,249.409 189.786,247.875 189.795 C 246.637 189.802,245.811 189.857,246.038 189.918 M257.035 190.228 C 257.624 190.704,257.625 190.718,257.703 197.207 C 257.791 204.568,257.686 205.271,256.279 206.749 C 255.178 207.907,255.438 208.035,256.875 207.043 C 258.970 205.597,259.108 205.035,259.250 197.415 C 259.374 190.734,259.378 190.703,259.965 190.227 L 260.555 189.750 258.500 189.750 L 256.445 189.750 257.035 190.228 M265.375 190.142 C 260.742 192.543,261.893 196.684,267.798 198.864 C 274.124 201.199,275.682 203.316,273.175 206.172 C 272.540 206.897,272.489 207.023,272.927 206.789 C 276.954 204.635,275.293 200.039,269.791 198.115 C 266.931 197.114,264.831 196.057,264.260 195.330 C 263.022 193.757,264.027 191.056,266.210 190.086 C 266.576 189.924,266.706 189.782,266.500 189.772 C 266.294 189.762,265.788 189.928,265.375 190.142 M279.736 190.462 C 277.862 191.663,277.625 192.066,277.625 194.055 C 277.625 196.468,278.406 197.165,283.278 199.101 C 288.905 201.337,290.225 203.109,288.346 205.903 L 287.692 206.875 288.370 206.250 C 291.845 203.048,290.020 199.902,283.375 197.638 C 277.976 195.799,276.762 192.539,280.649 190.317 C 281.186 190.009,281.450 189.756,281.236 189.754 C 281.023 189.752,280.348 190.070,279.736 190.462 M292.403 189.995 C 293.287 190.352,293.355 190.881,293.447 198.115 C 293.543 205.662,293.476 206.524,292.736 207.264 C 292.255 207.745,292.268 207.750,294.173 207.750 C 295.863 207.750,296.039 207.709,295.627 207.407 C 294.403 206.513,294.403 190.987,295.627 190.093 C 296.037 189.793,295.832 189.752,293.985 189.766 C 292.562 189.777,292.047 189.851,292.403 189.995 M298.278 189.916 C 299.762 190.312,300.058 206.358,298.601 207.424 C 298.212 207.708,298.323 207.750,299.452 207.750 L 300.750 207.750 300.750 198.750 L 300.750 189.750 299.313 189.779 C 298.522 189.795,298.056 189.856,298.278 189.916 M307.175 190.122 C 308.165 190.301,309.318 190.692,309.737 190.991 L 310.500 191.534 310.500 190.642 L 310.500 189.750 307.938 189.773 L 305.375 189.795 307.175 190.122 M312.430 190.005 C 312.735 190.128,313.063 190.538,313.158 190.918 C 313.302 191.493,313.358 191.531,313.491 191.151 C 313.615 190.798,314.012 191.251,315.253 193.160 C 316.134 194.516,318.555 198.213,320.632 201.375 C 322.710 204.537,324.539 207.350,324.697 207.625 C 324.855 207.900,324.993 208.069,325.002 208.000 C 325.151 206.915,325.208 204.959,325.086 205.080 C 324.998 205.169,324.245 204.203,323.413 202.933 C 322.582 201.664,320.291 198.178,318.323 195.188 L 314.744 189.750 313.310 189.766 C 312.209 189.778,312.004 189.834,312.430 190.005 M323.398 190.633 C 324.210 191.494,324.746 192.804,324.749 193.938 C 324.749 194.247,324.863 194.500,325.000 194.500 C 325.144 194.500,325.250 193.724,325.250 192.673 C 325.250 190.852,325.489 190.195,326.250 189.923 C 326.456 189.850,325.712 189.781,324.595 189.770 L 322.566 189.750 323.398 190.633 M234.750 197.759 C 236.861 198.786,238.857 198.990,239.750 198.271 L 240.375 197.768 239.496 197.907 C 238.991 197.987,237.982 197.864,237.121 197.616 C 236.298 197.380,235.063 197.137,234.375 197.078 L 233.125 196.969 234.750 197.759 M303.680 197.875 C 305.763 198.885,307.134 199.007,308.035 198.262 L 308.625 197.774 307.748 197.910 C 307.193 197.996,306.300 197.854,305.318 197.523 C 302.529 196.583,301.482 196.808,303.680 197.875 M325.090 199.750 C 325.090 201.056,325.132 201.591,325.184 200.938 C 325.235 200.284,325.235 199.216,325.184 198.563 C 325.132 197.909,325.090 198.444,325.090 199.750 M313.504 203.875 C 313.461 205.553,313.074 207.078,312.602 207.423 C 312.219 207.703,312.432 207.750,314.081 207.750 L 316.008 207.750 315.220 207.046 C 314.630 206.519,314.319 205.906,313.981 204.609 C 313.562 203.003,313.527 202.949,313.504 203.875 M262.711 204.873 C 262.856 206.702,265.397 208.030,268.625 207.964 L 270.375 207.929 268.703 207.758 C 266.731 207.557,265.439 206.833,263.748 204.980 L 262.621 203.745 262.711 204.873 M277.547 204.899 L 277.625 206.122 279.319 206.983 C 280.621 207.644,281.375 207.859,282.569 207.908 C 283.879 207.962,283.967 207.942,283.125 207.782 C 281.545 207.483,280.181 206.643,278.773 205.103 L 277.470 203.676 277.547 204.899 M310.012 205.978 C 309.700 206.560,308.020 207.230,306.213 207.493 C 305.073 207.659,305.290 207.692,307.688 207.719 L 310.500 207.750 310.500 206.625 C 310.500 205.390,310.398 205.256,310.012 205.978 M276.750 214.751 C 276.750 214.854,277.095 215.006,277.516 215.091 C 281.157 215.819,280.399 219.606,276.182 221.748 C 273.419 223.153,273.264 223.380,275.643 222.536 C 280.434 220.836,282.053 219.037,280.957 216.631 C 280.484 215.592,276.750 213.924,276.750 214.751 M259.660 215.579 C 259.394 216.217,259.339 216.667,259.495 216.952 C 259.997 217.869,261.559 222.175,261.689 223.000 C 261.765 223.481,261.926 223.940,262.046 224.019 C 262.352 224.221,264.253 229.129,264.577 230.553 C 264.886 231.913,264.472 232.641,263.287 232.823 C 262.923 232.879,263.919 232.935,265.500 232.947 C 267.327 232.960,268.181 232.890,267.843 232.754 C 267.032 232.426,266.422 231.385,265.276 228.375 C 264.070 225.208,262.904 222.135,261.624 218.750 C 261.130 217.444,260.575 215.982,260.391 215.502 L 260.057 214.629 259.660 215.579 M271.074 214.935 C 269.563 215.021,269.535 215.035,269.987 215.487 C 270.638 216.138,270.831 218.962,270.709 226.027 L 270.610 231.806 269.916 232.403 L 269.222 233.000 271.174 232.984 C 272.597 232.973,272.973 232.907,272.563 232.742 L 272.000 232.516 272.000 223.890 L 272.000 215.264 272.813 215.030 C 273.259 214.901,273.400 214.807,273.125 214.821 C 272.850 214.835,271.927 214.886,271.074 214.935 M313.257 215.357 C 312.886 216.332,312.892 216.361,314.125 219.611 C 314.744 221.242,315.250 222.678,315.250 222.802 C 315.250 222.926,315.464 223.499,315.726 224.076 C 318.543 230.289,318.810 232.376,316.839 232.756 C 316.173 232.885,316.804 232.950,318.875 232.968 C 321.411 232.989,321.780 232.945,321.264 232.683 C 320.448 232.270,319.871 231.228,318.620 227.906 C 312.923 212.776,313.619 214.405,313.257 215.357 M223.682 215.676 C 224.081 216.285,224.125 217.088,224.125 223.739 C 224.125 231.626,224.044 232.397,223.180 232.745 C 222.759 232.915,222.986 232.972,224.125 232.984 L 225.625 233.000 225.625 224.000 L 225.625 215.000 224.432 215.000 L 223.238 215.000 223.682 215.676 M231.806 215.271 C 233.241 215.481,234.724 216.084,235.049 216.590 C 235.331 217.029,235.450 216.684,235.317 215.813 L 235.193 215.000 232.784 215.030 C 230.463 215.060,230.427 215.069,231.806 215.271 M237.682 215.676 C 238.081 216.285,238.125 217.089,238.125 223.739 C 238.125 231.626,238.044 232.397,237.180 232.745 C 236.789 232.902,237.279 232.973,238.840 232.984 C 241.019 233.000,241.046 232.993,240.494 232.546 C 239.111 231.426,239.204 216.123,240.600 215.191 C 240.751 215.090,240.057 215.006,239.057 215.004 L 237.238 215.000 237.682 215.676 M247.916 215.295 C 248.716 215.683,248.743 215.969,248.747 224.199 L 248.750 231.773 248.136 232.386 L 247.523 233.000 249.824 232.966 C 251.089 232.947,251.880 232.884,251.581 232.826 C 250.399 232.596,250.375 232.422,250.375 223.988 C 250.375 216.535,250.404 216.020,250.851 215.526 L 251.327 215.000 249.351 215.017 C 247.789 215.030,247.488 215.089,247.916 215.295 M291.486 215.486 C 291.769 215.769,292.013 216.309,292.030 216.688 L 292.059 217.375 292.218 216.633 C 292.365 215.947,292.806 216.544,298.001 224.461 L 303.625 233.031 303.700 231.788 C 303.774 230.558,303.728 230.474,299.619 224.210 C 292.924 214.003,293.831 215.137,292.296 215.049 L 290.973 214.973 291.486 215.486 M301.873 215.543 C 302.670 216.170,303.473 217.789,303.525 218.875 C 303.545 219.287,303.712 218.726,303.896 217.628 C 304.116 216.321,304.381 215.523,304.664 215.316 C 305.025 215.052,304.776 215.000,303.139 215.000 L 301.183 215.000 301.873 215.543 M323.682 215.676 C 324.081 216.285,324.125 217.088,324.125 223.739 C 324.125 231.626,324.044 232.397,323.180 232.745 C 322.759 232.915,322.986 232.972,324.125 232.984 L 325.625 233.000 325.625 224.000 L 325.625 215.000 324.432 215.000 L 323.238 215.000 323.682 215.676 M331.806 215.271 C 333.241 215.481,334.724 216.084,335.049 216.590 C 335.331 217.029,335.450 216.684,335.317 215.813 L 335.193 215.000 332.784 215.030 C 330.463 215.060,330.427 215.069,331.806 215.271 M337.535 215.478 L 338.125 215.955 338.205 223.290 C 338.291 231.145,338.159 232.350,337.173 232.747 C 336.765 232.912,337.025 232.972,338.188 232.984 L 339.750 233.000 339.750 224.000 L 339.750 215.000 338.347 215.000 L 336.945 215.000 337.535 215.478 M345.841 215.270 C 346.647 215.391,347.807 215.769,348.419 216.110 L 349.530 216.732 349.453 215.928 L 349.375 215.125 346.875 215.088 C 344.569 215.054,344.489 215.068,345.841 215.270 M351.444 215.389 C 351.750 215.603,352.000 215.993,352.000 216.256 C 352.000 216.554,352.127 216.686,352.336 216.606 C 352.559 216.520,352.907 217.005,353.374 218.051 C 353.760 218.917,354.847 221.240,355.788 223.215 C 356.730 225.189,357.500 226.842,357.500 226.888 C 357.500 227.167,359.575 231.250,359.717 231.250 C 360.733 231.250,360.434 229.640,358.795 226.294 C 357.874 224.414,356.286 221.103,355.265 218.938 L 353.410 215.000 352.149 215.000 C 350.937 215.000,350.910 215.015,351.444 215.389 M365.750 223.386 L 365.750 231.773 365.136 232.386 L 364.523 233.000 366.699 232.996 C 368.598 232.993,368.797 232.953,368.261 232.682 C 367.327 232.209,367.216 231.113,367.300 223.165 L 367.375 215.955 367.965 215.478 L 368.555 215.000 367.153 215.000 L 365.750 215.000 365.750 223.386 M227.125 222.250 C 226.691 222.436,226.684 222.467,227.067 222.482 C 227.310 222.492,228.142 222.838,228.915 223.250 C 230.623 224.161,232.136 224.251,232.953 223.490 C 233.678 222.814,233.644 222.739,232.760 223.073 C 232.138 223.307,231.698 223.244,230.016 222.676 C 227.826 221.937,227.847 221.940,227.125 222.250 M241.125 222.250 C 240.677 222.442,240.672 222.467,241.079 222.482 C 241.328 222.492,242.172 222.798,242.954 223.162 C 245.049 224.138,246.707 224.228,247.473 223.407 L 248.072 222.766 247.317 223.051 C 246.685 223.290,246.181 223.228,244.209 222.668 C 242.914 222.301,241.803 222.008,241.740 222.018 C 241.677 222.027,241.400 222.132,241.125 222.250 M327.125 222.250 C 326.691 222.436,326.684 222.467,327.067 222.482 C 327.310 222.492,328.142 222.838,328.915 223.250 C 330.623 224.161,332.136 224.251,332.953 223.490 C 333.678 222.814,333.644 222.739,332.760 223.073 C 332.138 223.307,331.698 223.244,330.016 222.676 C 327.826 221.937,327.847 221.940,327.125 222.250 M341.125 222.250 L 340.625 222.465 341.125 222.492 C 341.400 222.507,342.244 222.853,343.000 223.260 C 344.669 224.158,346.144 224.244,346.953 223.490 C 347.678 222.814,347.644 222.739,346.760 223.073 C 346.138 223.307,345.698 223.244,344.016 222.676 C 341.826 221.937,341.847 221.940,341.125 222.250 M259.125 223.268 C 258.575 223.675,257.402 224.540,256.519 225.191 C 253.528 227.396,252.639 229.313,253.610 231.467 C 254.709 233.904,259.004 233.734,260.450 231.195 L 260.775 230.625 260.310 231.157 C 258.418 233.320,255.097 232.730,254.612 230.144 C 254.241 228.166,255.210 226.517,257.851 224.633 C 259.179 223.685,260.542 222.470,260.226 222.514 C 260.171 222.522,259.675 222.862,259.125 223.268 M311.195 224.343 C 306.216 227.882,305.193 231.165,308.530 232.891 C 309.795 233.545,314.168 232.585,313.404 231.821 C 313.337 231.754,313.025 231.879,312.711 232.100 C 311.416 233.006,308.695 232.240,308.352 230.871 C 307.738 228.424,308.701 226.498,311.502 224.572 C 312.813 223.671,314.024 222.539,313.430 222.771 C 313.400 222.783,312.394 223.490,311.195 224.343 M278.625 223.987 C 282.535 225.594,281.314 232.053,276.918 233.010 C 275.920 233.227,275.936 233.233,277.281 233.140 C 282.568 232.775,284.235 226.329,279.610 224.135 C 279.164 223.923,278.648 223.757,278.462 223.766 C 278.277 223.775,278.350 223.874,278.625 223.987 M352.280 229.250 C 352.234 231.199,351.827 232.484,351.172 232.748 C 350.802 232.897,351.394 232.964,353.000 232.955 C 354.306 232.948,355.150 232.887,354.875 232.820 C 353.699 232.534,352.790 231.125,352.497 229.135 L 352.312 227.875 352.280 229.250 M292.157 229.750 C 291.886 232.101,291.747 232.515,291.155 232.754 C 290.800 232.897,291.369 232.972,292.875 232.980 C 294.845 232.991,295.047 232.953,294.501 232.677 C 293.727 232.285,292.792 230.631,292.537 229.202 L 292.345 228.125 292.157 229.750 M234.905 231.138 C 234.570 232.009,232.516 232.583,229.125 232.755 L 225.875 232.919 230.563 232.959 C 234.870 232.997,235.251 232.965,235.267 232.563 C 235.277 232.322,235.325 231.816,235.375 231.438 C 235.472 230.701,235.151 230.496,234.905 231.138 M334.905 231.138 C 334.570 232.009,332.516 232.583,329.125 232.755 L 325.875 232.919 330.563 232.959 C 334.870 232.997,335.251 232.965,335.267 232.563 C 335.277 232.322,335.325 231.816,335.375 231.438 C 335.472 230.701,335.151 230.496,334.905 231.138 M349.000 231.124 C 348.182 232.122,346.521 232.583,343.125 232.755 L 339.875 232.919 344.570 232.959 C 349.717 233.004,349.608 233.037,349.455 231.482 C 349.380 230.717,349.352 230.695,349.000 231.124 " stroke="none" fill="#0e0c0c" fill-rule="evenodd"></path><path id="path1" d="M0.000 200.000 L 0.000 400.000 200.000 400.000 L 400.000 400.000 400.000 200.000 L 400.000 0.000 200.000 0.000 L 0.000 0.000 0.000 200.000 M94.875 127.000 C 94.875 127.585,94.772 127.636,93.250 127.792 C 88.655 128.264,86.754 130.704,85.455 137.797 L 84.891 140.875 84.815 179.688 C 84.773 201.034,84.833 218.500,84.947 218.500 C 85.247 218.500,86.103 217.662,86.919 216.570 C 87.307 216.050,87.767 215.475,87.941 215.291 C 88.115 215.107,88.565 214.545,88.940 214.041 C 89.315 213.537,89.684 213.069,89.761 213.000 C 90.875 211.994,90.969 211.476,90.824 207.111 C 90.233 189.363,95.967 173.544,106.998 162.495 C 108.665 160.825,111.239 158.582,112.008 158.129 C 112.245 157.989,113.399 157.234,114.572 156.450 C 120.886 152.235,129.934 149.500,137.571 149.500 L 139.324 149.500 139.177 144.563 C 138.827 132.824,136.650 128.345,131.022 127.788 C 129.475 127.635,129.375 127.587,129.375 127.000 L 129.375 126.375 144.375 126.375 L 159.375 126.375 159.375 127.000 C 159.375 127.587,159.275 127.635,157.728 127.788 C 151.931 128.361,150.157 132.137,149.373 145.563 C 149.196 148.596,149.121 148.498,151.148 147.870 C 157.446 145.920,168.782 146.449,176.000 149.030 C 180.035 150.473,185.544 153.544,188.125 155.789 C 195.332 162.059,199.292 167.733,201.786 175.361 C 207.957 194.235,199.654 216.509,183.194 225.241 C 182.224 225.755,182.024 226.006,181.671 227.151 C 179.281 234.913,173.169 243.865,166.124 249.921 C 153.951 260.386,134.866 263.158,120.675 256.523 C 119.765 256.098,118.943 255.750,118.849 255.750 C 118.389 255.750,112.638 252.083,110.875 250.666 C 100.809 242.572,94.328 231.010,91.667 216.395 L 91.124 213.416 89.641 215.395 C 88.826 216.484,87.441 218.122,86.564 219.036 L 84.969 220.697 85.122 222.286 C 85.983 231.211,88.086 234.538,93.274 235.178 C 94.762 235.362,94.875 235.420,94.875 236.000 L 94.875 236.625 79.875 236.625 L 64.875 236.625 64.875 236.008 C 64.875 235.438,65.008 235.370,66.625 235.107 C 70.933 234.409,72.762 232.168,74.111 225.938 L 74.260 225.250 71.942 225.245 C 58.581 225.216,49.143 214.349,50.996 201.125 C 52.438 190.832,62.001 183.051,72.587 183.558 L 75.049 183.676 74.930 163.526 C 74.835 147.344,74.733 142.671,74.412 139.801 C 73.497 131.605,71.261 128.184,66.575 127.808 C 64.940 127.677,64.541 127.404,64.841 126.623 C 64.968 126.292,66.802 126.254,79.930 126.311 L 94.875 126.375 94.875 127.000 M158.250 148.000 C 153.749 148.438,149.416 149.592,149.302 150.383 C 149.240 150.821,149.581 151.006,151.802 151.738 C 167.544 156.923,181.312 173.568,183.865 190.500 C 183.959 191.119,184.138 191.963,184.265 192.375 C 184.585 193.421,185.188 199.241,185.378 203.125 C 185.639 208.464,184.568 217.681,183.114 222.608 C 182.708 223.984,182.672 224.246,182.941 223.867 C 183.042 223.725,183.744 223.225,184.500 222.756 C 187.077 221.159,190.099 218.437,193.205 214.916 C 197.143 210.451,201.255 201.541,202.106 195.625 C 205.960 168.852,184.415 145.455,158.250 148.000 M133.253 151.534 C 117.148 154.208,104.692 170.075,101.519 191.958 C 100.808 196.864,100.815 196.902,102.075 194.859 C 102.666 193.900,103.384 192.781,103.670 192.371 C 103.957 191.960,105.594 189.487,107.308 186.874 C 110.507 181.998,115.729 174.883,118.222 172.004 C 120.889 168.925,121.385 168.380,123.750 165.937 C 127.283 162.288,134.112 156.496,138.322 153.577 C 139.480 152.775,139.509 152.702,139.279 151.188 C 139.230 150.865,136.249 151.037,133.253 151.534 M149.250 173.875 L 149.250 194.250 144.375 194.250 L 139.500 194.250 139.500 174.500 C 139.500 163.637,139.443 154.750,139.374 154.750 C 137.877 154.750,124.257 166.840,120.102 171.856 C 119.427 172.671,118.706 173.516,118.500 173.733 C 116.985 175.328,110.359 184.579,106.849 190.000 C 105.558 191.994,104.389 193.794,104.253 194.000 C 103.894 194.539,102.712 196.393,101.644 198.089 C 98.566 202.978,101.414 223.222,106.820 234.875 C 116.990 256.796,138.717 265.150,154.496 253.206 C 155.192 252.680,155.856 252.250,155.974 252.250 C 156.287 252.250,161.812 246.783,162.584 245.709 C 162.946 245.205,163.391 244.643,163.572 244.459 C 165.099 242.910,169.314 235.392,170.614 231.899 C 171.295 230.069,171.290 229.824,170.573 230.129 C 170.017 230.365,169.955 230.375,166.786 230.719 C 162.738 231.158,160.916 231.098,160.381 230.506 C 160.135 230.235,159.748 229.954,159.521 229.882 C 157.623 229.279,157.830 225.456,159.826 224.239 C 162.784 222.435,166.556 226.167,164.600 228.961 C 164.052 229.743,164.040 229.741,167.000 229.353 C 171.120 228.812,171.811 228.549,172.204 227.365 C 180.154 203.419,173.714 171.884,158.209 158.837 C 155.242 156.340,150.651 153.500,149.583 153.500 C 149.308 153.500,149.250 157.064,149.250 173.875 M233.556 165.008 C 236.100 166.695,235.036 170.564,231.721 171.680 C 228.487 172.770,227.000 173.510,227.000 174.031 C 227.000 174.387,227.805 174.267,228.875 173.750 C 232.610 171.946,236.737 175.046,235.982 179.088 C 235.370 182.362,233.158 183.460,227.839 183.128 C 226.288 183.031,224.455 182.956,223.765 182.962 C 223.076 182.967,222.446 182.865,222.366 182.736 C 222.286 182.606,222.388 182.500,222.592 182.500 C 223.866 182.500,224.000 181.675,223.996 173.904 C 223.992 166.130,223.927 165.665,222.754 165.080 C 221.920 164.664,222.372 164.531,225.000 164.418 C 230.291 164.191,232.560 164.347,233.556 165.008 M242.250 164.723 C 242.250 164.845,241.969 165.016,241.625 165.103 C 240.498 165.386,240.977 166.833,243.938 172.084 L 245.183 174.293 245.694 173.459 C 248.529 168.829,249.762 165.215,248.563 165.045 C 247.229 164.856,248.166 164.500,250.000 164.500 C 252.189 164.500,252.363 164.625,251.214 165.375 C 250.701 165.709,250.006 166.721,249.116 168.428 C 248.384 169.832,247.409 171.632,246.950 172.428 C 245.591 174.781,245.500 175.122,245.500 177.856 C 245.500 181.351,245.649 181.982,246.563 182.366 C 247.595 182.800,247.046 182.947,244.292 182.977 C 241.988 183.001,241.497 182.809,242.589 182.312 C 243.340 181.970,243.502 181.158,243.492 177.781 L 243.485 175.125 242.243 172.875 C 241.560 171.637,240.433 169.520,239.739 168.169 C 238.857 166.453,238.255 165.587,237.740 165.294 C 236.557 164.621,236.844 164.500,239.625 164.500 C 241.069 164.500,242.250 164.600,242.250 164.723 M226.625 164.957 L 225.875 165.130 225.809 173.649 L 225.744 182.169 226.713 182.459 C 229.981 183.438,233.670 181.889,234.149 179.337 C 234.845 175.624,232.580 173.030,229.588 174.113 C 225.043 175.757,225.105 173.773,229.674 171.332 C 235.494 168.222,233.208 163.443,226.625 164.957 M213.125 188.128 C 213.125 208.181,213.081 210.875,212.750 210.875 C 212.420 210.875,212.367 208.143,212.311 188.044 C 212.251 166.389,212.270 165.217,212.686 165.297 C 213.101 165.377,213.125 166.638,213.125 188.128 M68.679 185.039 C 61.944 186.008,55.798 190.963,53.388 197.365 C 48.470 210.432,57.939 224.000,71.977 224.000 L 74.210 224.000 74.357 223.313 C 75.021 220.188,75.323 185.353,74.688 185.119 C 74.155 184.923,69.879 184.866,68.679 185.039 M273.438 189.785 C 274.211 190.094,274.250 190.174,274.250 191.430 C 274.250 192.899,273.981 193.092,273.371 192.063 C 271.061 188.165,263.074 189.852,263.919 194.059 C 264.173 195.319,267.446 197.500,269.084 197.500 C 269.258 197.500,269.507 197.599,269.638 197.720 C 269.768 197.841,270.325 198.079,270.875 198.250 C 278.426 200.595,275.539 209.005,267.471 208.161 C 264.110 207.810,262.145 206.337,262.414 204.371 L 262.575 203.202 263.209 204.012 C 266.384 208.069,270.834 208.862,273.178 205.789 C 274.821 203.635,273.636 201.268,270.309 200.059 C 265.528 198.322,263.993 197.541,263.146 196.413 C 261.205 193.827,262.702 190.727,266.500 189.467 C 267.400 189.169,272.478 189.401,273.438 189.785 M288.063 189.732 C 288.996 190.022,289.000 190.030,289.000 191.387 C 289.000 192.137,288.887 192.750,288.750 192.750 C 288.613 192.750,288.500 192.615,288.500 192.449 C 288.500 192.051,286.986 190.500,286.597 190.500 C 286.429 190.500,286.250 190.374,286.198 190.220 C 285.800 189.025,280.638 190.015,279.541 191.497 C 277.726 193.953,278.839 195.632,283.434 197.368 C 284.777 197.875,286.189 198.409,286.573 198.554 C 291.545 200.441,291.129 206.329,285.914 207.877 C 283.177 208.690,279.733 208.027,277.688 206.293 C 277.240 205.914,277.032 203.500,277.446 203.500 C 277.554 203.500,278.029 203.967,278.501 204.538 C 281.605 208.291,286.970 208.677,288.410 205.251 C 289.489 202.684,287.996 201.031,283.000 199.260 C 277.048 197.150,275.468 194.047,278.717 190.846 C 280.226 189.359,285.027 188.787,288.063 189.732 M233.625 189.750 C 233.710 189.887,233.628 190.000,233.444 190.000 C 232.638 190.000,232.204 191.458,232.092 194.537 L 231.984 197.540 232.548 197.145 C 233.306 196.613,234.787 196.651,236.750 197.250 C 238.809 197.879,239.364 197.875,239.964 197.231 C 240.529 196.625,240.913 196.978,240.510 197.732 C 239.718 199.212,237.730 199.404,235.266 198.238 C 232.305 196.838,231.919 197.340,232.084 202.375 C 232.207 206.148,232.478 207.172,233.416 207.408 C 234.578 207.699,233.711 207.930,231.444 207.933 C 228.984 207.936,227.929 207.697,229.102 207.403 C 230.158 207.138,230.250 206.441,230.247 198.796 C 230.243 190.899,230.222 190.704,229.354 190.239 C 229.022 190.061,228.750 189.822,228.750 189.708 C 228.750 189.409,233.440 189.450,233.625 189.750 M244.375 189.750 C 244.460 189.887,244.372 190.000,244.179 190.000 C 242.965 190.000,242.875 190.583,242.875 198.464 C 242.875 206.593,242.934 207.117,243.883 207.355 C 245.159 207.675,244.201 207.941,241.897 207.907 C 239.526 207.871,238.767 207.687,239.731 207.381 C 240.783 207.047,240.871 206.462,240.953 199.250 C 241.038 191.831,240.890 190.645,239.814 190.110 C 239.505 189.956,239.327 189.756,239.418 189.665 C 239.685 189.399,244.206 189.476,244.375 189.750 M250.375 189.750 C 250.460 189.887,250.372 190.000,250.179 190.000 C 248.679 190.000,248.078 203.233,249.467 205.658 C 251.063 208.444,255.326 208.459,256.809 205.684 C 257.357 204.658,257.375 204.412,257.375 197.791 L 257.375 190.957 256.688 190.365 C 255.707 189.522,255.749 189.500,258.360 189.500 C 260.572 189.500,261.619 189.780,260.500 190.072 C 259.591 190.310,259.431 191.383,259.275 198.262 C 259.112 205.487,259.098 205.556,257.521 206.943 C 255.465 208.750,250.390 208.601,248.466 206.678 C 247.080 205.291,247.001 204.843,246.986 198.196 C 246.971 191.723,246.809 190.604,245.814 190.109 C 245.505 189.956,245.327 189.756,245.418 189.665 C 245.685 189.399,250.206 189.476,250.375 189.750 M296.582 189.665 C 296.673 189.756,296.495 189.956,296.186 190.109 C 295.173 190.613,295.028 191.692,295.028 198.750 C 295.028 205.842,295.171 206.886,296.210 207.403 C 297.066 207.828,296.638 207.940,294.125 207.944 C 291.476 207.948,291.205 207.849,292.206 207.240 C 293.990 206.155,293.660 190.000,291.854 190.000 C 291.643 190.000,291.540 189.887,291.625 189.750 C 291.794 189.476,296.315 189.399,296.582 189.665 M310.750 190.875 C 310.750 192.236,310.427 192.701,310.130 191.766 C 309.831 190.823,306.722 190.003,303.438 190.001 L 301.000 190.000 301.000 193.634 C 301.000 197.149,301.016 197.259,301.484 197.009 C 302.244 196.602,303.875 196.705,305.310 197.250 C 307.003 197.894,307.875 197.888,308.335 197.232 C 308.797 196.572,309.083 196.999,308.756 197.859 C 308.243 199.209,306.156 199.361,303.812 198.219 C 302.468 197.565,302.111 197.483,301.605 197.714 L 301.000 197.989 301.000 202.745 L 301.000 207.500 302.688 207.495 C 306.597 207.484,309.855 206.538,310.159 205.327 C 310.446 204.185,310.772 204.781,310.699 206.313 L 310.625 207.875 304.375 207.926 C 297.611 207.980,296.976 207.922,298.059 207.349 C 299.063 206.818,299.125 206.306,299.125 198.489 C 299.125 190.934,298.985 190.000,297.854 190.000 C 297.643 190.000,297.540 189.887,297.625 189.750 C 297.722 189.594,300.211 189.500,304.265 189.500 L 310.750 189.500 310.750 190.875 M318.145 194.383 C 319.922 197.069,321.490 199.460,321.630 199.696 C 322.581 201.294,324.768 204.500,324.907 204.500 C 325.000 204.500,325.013 202.278,324.938 199.563 C 324.763 193.280,324.222 191.105,322.623 190.249 C 322.281 190.066,322.000 189.822,322.000 189.708 C 322.000 189.409,326.690 189.450,326.875 189.750 C 326.960 189.887,326.857 190.000,326.646 190.000 C 325.482 190.000,325.375 190.827,325.375 199.801 C 325.375 208.991,325.342 209.180,324.087 207.188 C 322.775 205.104,320.130 201.052,316.949 196.250 L 313.719 191.375 313.797 197.750 C 313.889 205.240,314.268 206.746,316.218 207.365 C 317.219 207.683,316.533 207.863,314.115 207.918 C 311.642 207.975,311.035 207.751,312.172 207.203 C 313.179 206.719,313.286 205.755,313.201 197.963 C 313.121 190.644,313.009 190.000,311.821 190.000 C 311.628 190.000,311.540 189.887,311.625 189.750 C 311.710 189.613,312.485 189.500,313.348 189.500 L 314.916 189.500 318.145 194.383 M261.510 217.655 C 262.072 219.151,262.906 221.387,263.364 222.625 C 267.032 232.549,267.444 233.234,269.322 232.520 C 270.308 232.145,270.375 231.575,270.375 223.589 C 270.375 215.862,270.280 215.250,269.086 215.250 C 268.901 215.250,268.750 215.155,268.750 215.039 C 268.750 214.828,274.738 214.428,277.125 214.478 C 283.775 214.619,282.512 221.117,275.500 222.836 C 274.396 223.107,273.151 224.001,273.456 224.306 C 273.652 224.502,274.120 224.428,275.136 224.039 C 279.074 222.532,282.510 224.523,282.495 228.303 C 282.479 231.973,279.923 233.738,275.143 233.378 C 273.758 233.273,270.262 233.117,267.375 233.031 C 263.906 232.928,262.434 232.809,263.037 232.681 C 264.272 232.418,264.596 231.971,264.386 230.815 C 264.245 230.037,262.612 225.541,262.385 225.304 C 262.347 225.265,262.202 226.135,262.061 227.237 C 261.442 232.085,257.727 234.932,254.547 232.994 C 251.543 231.162,252.690 227.453,257.214 224.371 C 259.784 222.621,260.490 221.928,260.007 221.629 C 259.870 221.545,259.359 221.875,258.871 222.363 C 257.294 223.939,256.481 223.494,257.205 221.450 C 258.716 217.183,259.610 214.836,259.833 214.547 C 260.164 214.120,260.225 214.233,261.510 217.655 M315.537 219.000 C 316.082 220.444,316.909 222.637,317.375 223.875 C 317.840 225.113,318.462 226.744,318.755 227.500 C 319.048 228.256,319.464 229.369,319.680 229.973 C 319.895 230.577,320.505 231.505,321.036 232.036 L 322.000 233.000 318.938 232.995 L 315.875 232.989 316.938 232.507 C 318.059 231.997,318.384 230.932,317.758 229.809 C 317.428 229.216,316.324 226.295,316.082 225.375 C 315.921 224.765,315.854 225.000,315.724 226.625 C 315.240 232.673,309.258 236.142,306.976 231.697 C 305.640 229.096,306.788 226.902,310.827 224.336 C 312.919 223.006,313.750 222.294,313.750 221.831 C 313.750 221.269,313.298 221.461,312.466 222.375 C 311.699 223.218,310.700 223.527,310.386 223.018 C 310.223 222.754,311.129 220.186,313.306 214.750 C 313.600 214.013,313.791 214.377,315.537 219.000 M235.581 216.125 C 235.556 216.813,235.528 217.423,235.518 217.483 C 235.508 217.542,235.178 217.229,234.785 216.789 C 233.855 215.747,231.421 215.201,228.160 215.303 L 225.875 215.375 225.806 218.934 L 225.736 222.493 226.384 222.246 C 227.365 221.874,228.723 221.963,230.250 222.500 C 232.024 223.124,232.468 223.118,233.171 222.456 L 233.750 221.913 233.750 222.576 C 233.750 224.173,230.807 224.667,228.688 223.425 C 226.003 221.851,225.722 222.301,225.807 228.033 L 225.875 232.625 228.250 232.595 C 232.188 232.545,235.000 231.611,235.000 230.353 C 235.000 229.121,235.638 230.201,235.667 231.483 C 235.709 233.304,236.422 233.151,228.625 232.994 C 225.050 232.921,222.271 232.837,222.449 232.806 C 222.627 232.775,223.049 232.474,223.386 232.136 L 224.000 231.523 224.000 224.148 C 224.000 216.313,223.907 215.612,222.834 215.342 C 221.146 214.919,223.143 214.748,229.080 214.808 L 235.625 214.875 235.581 216.125 M241.500 215.000 C 241.500 215.137,241.349 215.250,241.164 215.250 C 240.209 215.250,239.900 216.192,239.792 219.428 C 239.692 222.435,239.708 222.568,240.156 222.371 C 241.179 221.921,242.777 221.960,244.474 222.475 C 246.636 223.132,246.955 223.130,247.671 222.456 C 248.180 221.979,248.250 221.966,248.250 222.348 C 248.250 224.277,245.607 224.772,242.830 223.363 C 240.231 222.045,239.893 222.401,239.804 226.553 C 239.718 230.629,239.930 232.013,240.698 232.396 C 241.774 232.932,241.565 233.000,238.854 232.990 C 236.302 232.981,236.169 232.956,236.806 232.610 C 237.960 231.984,238.000 231.694,238.000 224.028 C 238.000 216.319,237.905 215.611,236.834 215.342 C 236.515 215.262,236.316 215.096,236.391 214.973 C 236.585 214.660,241.500 214.686,241.500 215.000 M252.000 214.983 C 252.000 215.111,251.778 215.287,251.506 215.373 C 250.616 215.656,250.467 217.103,250.548 224.666 L 250.625 231.798 251.375 232.398 L 252.125 232.998 249.375 232.978 C 246.829 232.961,246.683 232.934,247.404 232.618 C 248.461 232.154,248.501 231.846,248.508 224.027 C 248.515 216.542,248.438 215.825,247.589 215.438 C 246.485 214.935,246.998 214.750,249.500 214.750 C 250.880 214.750,252.000 214.854,252.000 214.983 M295.547 217.544 C 298.094 221.436,302.812 228.614,303.186 229.166 C 303.437 229.537,303.485 228.572,303.436 224.125 C 303.366 217.821,302.924 216.055,301.255 215.425 C 299.936 214.927,300.427 214.750,303.125 214.750 C 304.708 214.750,305.750 214.849,305.750 215.000 C 305.750 215.137,305.599 215.250,305.414 215.250 C 304.202 215.250,304.130 215.758,304.050 224.901 C 304.009 229.630,303.880 233.500,303.764 233.500 C 303.647 233.500,303.179 232.909,302.723 232.188 C 301.587 230.388,295.489 221.060,293.911 218.708 L 292.625 216.791 292.550 222.083 C 292.448 229.248,292.944 231.566,294.781 232.516 C 295.829 233.058,295.381 233.152,292.500 232.997 C 290.364 232.881,290.195 232.838,290.817 232.564 C 291.913 232.081,292.000 231.440,291.996 223.921 C 291.992 216.451,291.911 215.866,290.808 215.378 C 289.832 214.947,290.200 214.750,291.984 214.750 L 293.719 214.750 295.547 217.544 M335.581 216.125 C 335.556 216.813,335.528 217.423,335.518 217.483 C 335.508 217.542,335.178 217.229,334.785 216.789 C 333.855 215.747,331.421 215.201,328.160 215.303 L 325.875 215.375 325.806 218.934 L 325.736 222.493 326.384 222.246 C 327.365 221.874,328.723 221.963,330.250 222.500 C 332.024 223.124,332.468 223.118,333.171 222.456 L 333.750 221.913 333.750 222.576 C 333.750 224.173,330.807 224.667,328.688 223.425 C 326.003 221.851,325.722 222.301,325.807 228.033 L 325.875 232.625 328.250 232.595 C 332.188 232.545,335.000 231.611,335.000 230.353 C 335.000 229.121,335.638 230.201,335.667 231.483 C 335.709 233.304,336.422 233.151,328.625 232.994 C 325.050 232.921,322.271 232.837,322.449 232.806 C 322.627 232.775,323.049 232.474,323.386 232.136 L 324.000 231.523 324.000 224.148 C 324.000 216.313,323.907 215.612,322.834 215.342 C 321.146 214.919,323.143 214.748,329.080 214.808 L 335.625 214.875 335.581 216.125 M349.704 215.839 C 349.833 217.404,349.612 217.632,348.817 216.754 C 347.912 215.754,345.381 215.203,342.160 215.303 L 339.875 215.375 339.814 218.803 L 339.754 222.231 341.314 222.089 C 342.546 221.976,343.165 222.057,344.250 222.473 C 345.976 223.134,346.604 223.136,347.214 222.481 C 347.775 221.879,348.038 222.120,347.725 222.949 C 347.190 224.363,344.937 224.534,342.575 223.339 C 341.491 222.790,341.102 222.705,340.554 222.898 L 339.875 223.136 339.799 227.371 C 339.697 233.013,339.603 232.750,341.733 232.750 C 345.333 232.750,348.615 231.751,348.912 230.565 C 348.990 230.254,349.202 230.000,349.382 230.000 C 349.819 230.000,349.860 232.918,349.424 233.041 C 348.737 233.234,336.161 232.864,336.781 232.668 C 337.926 232.308,338.009 231.726,338.016 224.014 C 338.022 216.533,337.917 215.666,336.962 215.363 C 335.470 214.889,337.035 214.747,343.063 214.808 L 349.625 214.875 349.704 215.839 M354.049 215.694 C 354.855 217.460,357.775 223.632,359.064 226.291 C 360.537 229.329,360.324 229.374,361.629 225.750 C 362.429 223.528,363.442 220.825,363.737 220.125 C 363.853 219.850,364.343 218.556,364.825 217.250 L 365.703 214.875 367.351 214.801 C 368.944 214.730,369.566 215.037,368.508 215.373 C 367.671 215.638,367.503 217.066,367.501 223.906 C 367.500 231.521,367.546 231.883,368.599 232.525 L 369.375 232.998 366.625 232.989 C 364.101 232.981,363.929 232.951,364.531 232.623 C 364.892 232.427,365.275 232.010,365.383 231.696 C 365.589 231.092,365.873 216.288,365.674 216.500 C 365.610 216.569,364.408 219.719,363.004 223.500 C 359.978 231.646,359.936 231.750,359.674 231.750 C 359.563 231.750,358.962 230.653,358.341 229.313 C 357.719 227.972,356.782 225.975,356.257 224.875 C 355.732 223.775,355.054 222.313,354.750 221.625 C 354.446 220.938,353.820 219.588,353.360 218.625 L 352.523 216.875 352.513 222.125 C 352.499 229.847,352.903 231.625,354.875 232.514 L 355.875 232.965 353.000 232.956 C 350.721 232.949,350.263 232.892,350.791 232.683 C 351.931 232.230,352.000 231.725,352.000 223.785 C 352.000 215.973,351.893 215.250,350.740 215.250 C 350.608 215.250,350.500 215.137,350.500 215.000 C 350.500 214.158,353.628 214.769,354.049 215.694 M272.813 215.258 L 272.250 215.484 272.250 223.858 C 272.250 233.463,272.036 232.687,274.749 232.933 C 278.933 233.313,281.671 230.173,280.370 226.487 C 279.562 224.196,277.748 223.459,275.465 224.495 C 274.061 225.131,273.080 225.147,272.886 224.535 C 272.574 223.552,272.898 223.248,276.100 221.521 C 279.267 219.814,280.079 218.543,279.215 216.648 C 278.609 215.317,274.749 214.479,272.813 215.258 M259.131 217.677 C 257.315 222.181,257.043 224.047,258.500 222.001 C 259.116 221.134,260.189 220.752,260.523 221.279 C 261.115 222.214,260.423 223.140,257.705 225.050 C 253.919 227.710,253.740 231.896,257.400 232.200 C 259.879 232.406,261.408 230.181,261.661 226.000 C 261.797 223.745,261.743 223.494,260.274 219.519 C 259.378 217.092,259.371 217.081,259.131 217.677 M312.449 218.313 C 310.606 222.904,310.523 223.718,312.072 221.993 C 313.009 220.949,313.504 220.778,313.969 221.338 C 314.549 222.037,313.800 223.181,311.835 224.598 C 307.477 227.741,307.036 232.250,311.086 232.250 C 314.344 232.250,316.372 226.577,314.730 222.056 C 314.445 221.269,314.119 220.344,314.007 220.000 C 313.894 219.656,313.594 218.897,313.339 218.313 L 312.875 217.251 312.449 218.313 " stroke="none" fill="#fbece4" fill-rule="evenodd"></path><path id="path2" d="M72.313 126.437 C 76.403 126.476,83.097 126.476,87.188 126.437 C 91.278 126.399,87.931 126.367,79.750 126.367 C 71.569 126.367,68.222 126.399,72.313 126.437 M137.080 126.437 C 141.181 126.476,147.818 126.476,151.830 126.437 C 155.842 126.399,152.488 126.367,144.375 126.367 C 136.262 126.367,132.980 126.399,137.080 126.437 M84.568 149.000 C 84.568 149.619,84.617 149.872,84.676 149.563 C 84.736 149.253,84.736 148.747,84.676 148.438 C 84.617 148.128,84.568 148.381,84.568 149.000 M149.072 154.875 C 149.073 155.563,149.122 155.814,149.179 155.434 C 149.237 155.054,149.235 154.492,149.176 154.184 C 149.117 153.877,149.070 154.188,149.072 154.875 M139.618 175.000 C 139.618 184.419,139.649 188.272,139.687 183.563 C 139.725 178.853,139.725 171.147,139.687 166.438 C 139.649 161.728,139.618 165.581,139.618 175.000 M169.000 162.625 C 169.466 163.106,169.904 163.500,169.973 163.500 C 170.042 163.500,169.716 163.106,169.250 162.625 C 168.784 162.144,168.346 161.750,168.277 161.750 C 168.208 161.750,168.534 162.144,169.000 162.625 M228.125 164.500 C 227.706 164.680,227.757 164.718,228.438 164.732 C 228.884 164.742,229.250 164.637,229.250 164.500 C 229.250 164.203,228.816 164.203,228.125 164.500 M226.664 174.563 C 226.727 174.666,227.054 174.750,227.390 174.750 C 227.725 174.750,228.000 174.666,228.000 174.563 C 228.000 174.459,227.673 174.375,227.274 174.375 C 226.875 174.375,226.600 174.459,226.664 174.563 M224.058 179.250 C 224.058 179.731,224.109 179.928,224.172 179.688 C 224.235 179.447,224.235 179.053,224.172 178.813 C 224.109 178.572,224.058 178.769,224.058 179.250 M71.188 183.676 C 71.497 183.736,72.003 183.736,72.313 183.676 C 72.622 183.617,72.369 183.568,71.750 183.568 C 71.131 183.568,70.878 183.617,71.188 183.676 M268.000 189.483 C 268.000 189.745,269.648 189.771,270.328 189.520 C 270.637 189.406,270.300 189.327,269.407 189.303 C 268.633 189.283,268.000 189.364,268.000 189.483 M283.000 189.500 C 283.000 189.637,283.169 189.750,283.375 189.750 C 283.581 189.750,283.750 189.637,283.750 189.500 C 283.750 189.363,283.581 189.250,283.375 189.250 C 283.169 189.250,283.000 189.363,283.000 189.500 M284.119 189.510 C 284.013 189.681,284.202 189.711,284.667 189.600 C 285.624 189.370,285.715 189.250,284.931 189.250 C 284.573 189.250,284.207 189.367,284.119 189.510 M310.568 190.750 C 310.568 191.369,310.617 191.622,310.676 191.313 C 310.736 191.003,310.736 190.497,310.676 190.188 C 310.617 189.878,310.568 190.131,310.568 190.750 M300.848 193.250 C 300.848 195.106,300.887 195.866,300.935 194.938 C 300.983 194.009,300.983 192.491,300.935 191.563 C 300.887 190.634,300.848 191.394,300.848 193.250 M313.352 197.250 C 313.352 199.519,313.390 200.447,313.436 199.313 C 313.482 198.178,313.482 196.322,313.436 195.188 C 313.390 194.053,313.352 194.981,313.352 197.250 M242.605 199.000 C 242.605 201.819,242.642 202.972,242.686 201.563 C 242.731 200.153,242.731 197.847,242.686 196.438 C 242.642 195.028,242.605 196.181,242.605 199.000 M248.603 198.250 C 248.603 200.656,248.640 201.641,248.686 200.438 C 248.732 199.234,248.732 197.266,248.686 196.063 C 248.640 194.859,248.603 195.844,248.603 198.250 M257.603 198.250 C 257.603 200.656,257.640 201.641,257.686 200.438 C 257.732 199.234,257.732 197.266,257.686 196.063 C 257.640 194.859,257.603 195.844,257.603 198.250 M300.855 202.750 C 300.855 205.431,300.891 206.528,300.936 205.188 C 300.981 203.847,300.981 201.653,300.936 200.313 C 300.891 198.972,300.855 200.069,300.855 202.750 M277.322 204.875 C 277.323 205.563,277.372 205.814,277.429 205.434 C 277.487 205.054,277.485 204.492,277.426 204.184 C 277.367 203.877,277.320 204.188,277.322 204.875 M310.558 205.750 C 310.558 206.231,310.609 206.428,310.672 206.188 C 310.735 205.947,310.735 205.553,310.672 205.313 C 310.609 205.072,310.558 205.269,310.558 205.750 M84.596 211.000 C 84.596 212.719,84.636 213.422,84.685 212.563 C 84.734 211.703,84.734 210.297,84.685 209.438 C 84.636 208.578,84.596 209.281,84.596 211.000 M224.440 214.927 C 224.751 214.987,225.201 214.984,225.440 214.922 C 225.679 214.859,225.425 214.810,224.875 214.813 C 224.325 214.816,224.129 214.867,224.440 214.927 M226.000 215.005 C 226.000 215.240,234.953 215.081,235.229 214.840 C 235.286 214.791,233.233 214.750,230.667 214.750 C 227.662 214.750,226.000 214.841,226.000 215.005 M238.682 214.930 C 239.126 214.986,239.913 214.987,240.432 214.932 C 240.951 214.878,240.588 214.833,239.625 214.832 C 238.662 214.831,238.238 214.875,238.682 214.930 M248.125 214.908 C 249.916 215.094,251.944 215.110,251.837 214.938 C 251.773 214.834,250.743 214.768,249.548 214.790 C 248.353 214.812,247.713 214.865,248.125 214.908 M269.692 214.931 C 270.141 214.987,270.816 214.986,271.192 214.929 C 271.568 214.872,271.200 214.826,270.375 214.827 C 269.550 214.829,269.243 214.876,269.692 214.931 M290.664 214.938 C 290.600 215.041,291.071 215.091,291.711 215.050 C 293.537 214.933,293.759 214.811,292.202 214.779 C 291.420 214.763,290.727 214.834,290.664 214.938 M302.682 214.930 C 303.126 214.986,303.913 214.987,304.432 214.932 C 304.951 214.878,304.587 214.833,303.625 214.832 C 302.663 214.831,302.238 214.875,302.682 214.930 M324.440 214.927 C 324.751 214.987,325.201 214.984,325.440 214.922 C 325.679 214.859,325.425 214.810,324.875 214.813 C 324.325 214.816,324.129 214.867,324.440 214.927 M326.000 215.005 C 326.000 215.240,334.953 215.081,335.229 214.840 C 335.286 214.791,333.233 214.750,330.667 214.750 C 327.662 214.750,326.000 214.841,326.000 215.005 M338.440 214.927 C 338.751 214.987,339.201 214.984,339.440 214.922 C 339.679 214.859,339.425 214.810,338.875 214.813 C 338.325 214.816,338.129 214.867,338.440 214.927 M340.000 215.005 C 340.000 215.240,348.953 215.081,349.229 214.840 C 349.286 214.791,347.233 214.750,344.667 214.750 C 341.662 214.750,340.000 214.841,340.000 215.005 M366.125 214.898 C 367.296 215.087,368.943 215.110,368.836 214.938 C 368.773 214.834,368.024 214.765,367.173 214.784 C 366.321 214.803,365.850 214.854,366.125 214.898 M272.112 224.000 C 272.112 228.744,272.146 230.684,272.187 228.313 C 272.228 225.941,272.228 222.059,272.187 219.688 C 272.146 217.316,272.112 219.256,272.112 224.000 M250.358 224.000 C 250.358 227.369,250.393 228.747,250.437 227.063 C 250.480 225.378,250.480 222.622,250.437 220.938 C 250.393 219.253,250.358 220.631,250.358 224.000 M56.750 219.125 C 57.216 219.606,57.654 220.000,57.723 220.000 C 57.792 220.000,57.466 219.606,57.000 219.125 C 56.534 218.644,56.096 218.250,56.027 218.250 C 55.958 218.250,56.284 218.644,56.750 219.125 M367.352 224.000 C 367.352 226.269,367.390 227.197,367.436 226.063 C 367.482 224.928,367.482 223.072,367.436 221.938 C 367.390 220.803,367.352 221.731,367.352 224.000 M258.500 222.180 C 257.857 222.851,257.786 222.993,258.232 222.716 C 258.754 222.391,259.734 221.235,259.468 221.258 C 259.417 221.262,258.981 221.677,258.500 222.180 M261.750 225.485 C 261.750 225.906,261.863 226.250,262.000 226.250 C 262.137 226.250,262.250 225.975,262.250 225.640 C 262.250 225.304,262.137 224.960,262.000 224.875 C 261.854 224.785,261.750 225.039,261.750 225.485 M315.540 225.667 C 315.518 226.103,315.435 226.665,315.356 226.917 C 315.220 227.349,315.228 227.350,315.497 226.932 C 315.653 226.689,315.736 226.126,315.680 225.682 L 315.580 224.875 315.540 225.667 M224.058 229.250 C 224.058 229.731,224.109 229.928,224.172 229.688 C 224.235 229.447,224.235 229.053,224.172 228.813 C 224.109 228.572,224.058 228.769,224.058 229.250 M324.058 229.250 C 324.058 229.731,324.109 229.928,324.172 229.688 C 324.235 229.447,324.235 229.053,324.172 228.813 C 324.109 228.572,324.058 228.769,324.058 229.250 M160.718 230.563 C 160.987 230.905,161.393 230.990,162.593 230.953 L 164.125 230.905 162.634 230.814 C 161.813 230.763,160.970 230.588,160.759 230.423 C 160.423 230.162,160.418 230.179,160.718 230.563 M158.859 249.813 L 158.125 250.625 158.938 249.891 C 159.384 249.487,159.750 249.121,159.750 249.078 C 159.750 248.885,159.544 249.055,158.859 249.813 " stroke="none" fill="#958d89" fill-rule="evenodd"></path></g></svg>